<svg width="460" height="432" viewBox="0 0 460 432" fill="none" xmlns="http://www.w3.org/2000/svg">
<path d="M391.799 206.583C302.169 155.053 156.849 155.053 67.2188 206.583C-22.4112 258.113 -22.4013 341.673 67.2188 393.203C156.839 444.733 302.159 444.743 391.789 393.203C481.419 341.663 481.419 258.123 391.799 206.583Z" fill="#F5F5F5"/>
<path d="M120.8 306.743C155.842 306.743 184.25 290.339 184.25 270.103C184.25 249.867 155.842 233.463 120.8 233.463C85.7571 233.463 57.3496 249.867 57.3496 270.103C57.3496 290.339 85.7571 306.743 120.8 306.743Z" fill="#E0E0E0"/>
<path d="M228.839 366.453L222.939 363.043L227.229 360.573C228.001 360.2 228.652 359.616 229.107 358.89C229.562 358.164 229.804 357.325 229.804 356.468C229.804 355.611 229.562 354.771 229.107 354.045C228.652 353.319 228.001 352.736 227.229 352.363L216.549 346.153C215.259 345.475 213.822 345.12 212.364 345.12C210.906 345.12 209.47 345.475 208.179 346.153L200.969 350.323L163.709 328.803C162.419 328.125 160.982 327.771 159.524 327.771C158.066 327.771 156.63 328.125 155.339 328.803L140.119 337.593C139.028 338.15 138.09 338.967 137.389 339.973C136.704 341.158 136.493 342.558 136.799 343.893L144.679 383.333C145.139 385.333 146.619 387.043 149.089 388.463L159.779 394.633C161.056 395.33 162.495 395.676 163.949 395.633C165.41 395.678 166.856 395.333 168.139 394.633L198.439 377.143L207.259 382.233C208.55 382.911 209.986 383.265 211.444 383.265C212.902 383.265 214.339 382.911 215.629 382.233L228.829 374.613C229.601 374.24 230.252 373.656 230.707 372.93C231.162 372.204 231.404 371.365 231.404 370.508C231.404 369.651 231.162 368.811 230.707 368.085C230.252 367.359 229.601 366.776 228.829 366.403L228.839 366.453ZM170.159 368.143L168.389 359.263L176.959 364.263L170.159 368.143Z" fill="#E0E0E0"/>
<path d="M288.169 305.043C285.499 303.343 282.549 301.563 279.399 299.733C276.249 297.903 273.109 296.193 269.999 294.543C265.827 292.43 261.447 290.755 256.929 289.543C252.103 288.214 247.125 287.512 242.119 287.453H241.439C236.383 287.478 231.348 288.103 226.439 289.313C220.824 290.727 215.437 292.929 210.439 295.853C204.989 299.003 201.169 302.133 198.749 305.453C196.384 308.429 195.104 312.122 195.119 315.923C195.303 319.573 196.712 323.054 199.119 325.803C201.724 328.859 204.779 331.499 208.179 333.633C210.939 335.383 213.959 337.203 217.179 339.053C220.399 340.903 223.459 342.603 226.369 344.123C230.541 346.25 234.921 347.942 239.439 349.173C244.264 350.488 249.238 351.177 254.239 351.223H254.939C259.995 351.2 265.031 350.575 269.939 349.363C275.554 347.949 280.941 345.747 285.939 342.823C291.389 339.673 295.209 336.533 297.629 333.223C299.999 330.25 301.279 326.555 301.259 322.753C301.074 319.104 299.665 315.623 297.259 312.873C294.651 309.81 291.585 307.169 288.169 305.043ZM270.049 325.923C269.194 326.982 268.115 327.84 266.889 328.433C264.177 330.08 261.062 330.945 257.889 330.933C257.543 330.933 257.193 330.933 256.839 330.933C255.228 330.834 253.638 330.521 252.109 330.003C250.421 329.427 248.782 328.715 247.209 327.873C241.475 324.941 235.894 321.717 230.489 318.213C229.263 317.476 228.132 316.593 227.119 315.583C226.595 315.103 226.209 314.492 225.999 313.813C225.999 313.713 225.909 313.413 226.339 312.753C227.19 311.693 228.266 310.835 229.489 310.243C231.08 309.297 232.807 308.603 234.609 308.183C235.834 307.908 237.084 307.767 238.339 307.763C238.719 307.763 239.089 307.763 239.459 307.763C241.072 307.897 242.661 308.233 244.189 308.763C245.899 309.341 247.569 310.029 249.189 310.823C254.939 313.823 260.569 317.093 265.939 320.493C267.19 321.255 268.356 322.147 269.419 323.153C269.9 323.591 270.247 324.156 270.419 324.783C270.439 324.863 270.549 325.223 270.049 325.923Z" fill="#E0E0E0"/>
<path d="M376.12 281.383L370.22 277.973L374.55 275.453C375.319 275.078 375.967 274.496 376.421 273.771C376.874 273.046 377.114 272.208 377.114 271.353C377.114 270.498 376.874 269.66 376.421 268.935C375.967 268.21 375.319 267.627 374.55 267.253L363.86 261.083C362.574 260.39 361.13 260.046 359.67 260.083C358.213 260.044 356.772 260.389 355.49 261.083L348.28 265.243L311.02 243.733C309.731 243.056 308.296 242.703 306.84 242.703C305.384 242.703 303.95 243.056 302.66 243.733L287.43 252.523C286.342 253.085 285.406 253.902 284.7 254.903C284.014 256.091 283.803 257.495 284.11 258.833L292 298.263C292.45 300.263 293.94 301.973 296.41 303.403L307.09 309.573C308.372 310.267 309.813 310.612 311.27 310.573C312.727 310.612 314.169 310.267 315.45 309.573L345.75 292.073L354.58 297.173C355.87 297.849 357.304 298.202 358.76 298.202C360.216 298.202 361.651 297.849 362.94 297.173L376.14 289.543C376.912 289.171 377.564 288.589 378.02 287.864C378.475 287.139 378.717 286.299 378.717 285.443C378.717 284.586 378.475 283.747 378.02 283.021C377.564 282.296 376.912 281.714 376.14 281.343L376.12 281.383ZM317.44 283.063L315.67 274.183L324.25 279.133L317.44 283.063Z" fill="#E0E0E0"/>
<path d="M416.918 43.2034L407.458 37.7434C407.511 37.359 407.537 36.9714 407.538 36.5834V33.8434C407.393 31.1892 406.625 28.6064 405.296 26.3043C403.967 24.0023 402.114 22.0458 399.888 20.5934C399.224 20.1511 398.479 19.8454 397.696 19.6943C396.913 19.5432 396.108 19.5497 395.328 19.7134C394.638 12.7734 389.818 4.93341 383.978 1.56341C377.658 -2.08659 372.528 0.873411 372.528 8.16341V12.2734C372.565 14.2691 372.902 16.2479 373.528 18.1434L365.668 13.6034C363.328 12.2434 361.428 13.3434 361.428 16.0534C361.498 17.531 361.917 18.971 362.648 20.2568C363.379 21.5425 364.404 22.6377 365.638 23.4534L416.918 53.0534C419.258 54.4134 421.158 53.3134 421.158 50.6034C421.084 49.1232 420.661 47.6814 419.924 46.3955C419.187 45.1095 418.157 44.0158 416.918 43.2034Z" fill="#EBEBEB"/>
<path d="M359.548 53.343L353.548 49.863C353.564 49.6165 353.564 49.3694 353.548 49.123V47.383C353.457 45.691 352.968 44.0444 352.122 42.5763C351.276 41.1083 350.096 39.8601 348.678 38.933C348.254 38.652 347.778 38.4579 347.279 38.3618C346.78 38.2656 346.266 38.2694 345.768 38.373C345.328 33.963 342.258 28.963 338.538 26.813C334.538 24.493 331.248 26.373 331.248 31.023V33.633C331.263 34.9039 331.472 36.1652 331.868 37.373L326.868 34.483C325.378 33.623 324.168 34.323 324.168 36.043C324.221 36.9798 324.492 37.8913 324.961 38.7041C325.43 39.5169 326.083 40.2083 326.868 40.723L359.548 59.593C361.038 60.453 362.248 59.753 362.248 58.023C362.195 57.0861 361.923 56.1746 361.455 55.3618C360.986 54.5491 360.333 53.8576 359.548 53.343Z" fill="#EBEBEB"/>
<path d="M355.369 258.204C352.139 243.394 346.959 228.874 350.169 206.204C353.089 185.664 363.879 167.314 379.249 165.204C389.609 163.824 398.659 175.374 388.519 190.204C386.829 192.674 364.869 214.204 368.519 243.874L366.469 263.614L355.369 258.204Z" fill="#B68C5A"/>
<g opacity="0.2">
<path d="M355.369 258.204C352.139 243.394 346.959 228.874 350.169 206.204C353.089 185.664 363.879 167.314 379.249 165.204C389.609 163.824 398.659 175.374 388.519 190.204C386.829 192.674 364.869 214.204 368.519 243.874L366.469 263.614L355.369 258.204Z" fill="#181818"/>
</g>
<path d="M360.75 256.004C360.881 255.943 360.99 255.841 361.058 255.713C361.127 255.585 361.152 255.438 361.13 255.294C355.13 217.294 362.78 188.924 381.13 173.294C381.264 173.18 381.348 173.017 381.363 172.841C381.378 172.665 381.323 172.49 381.21 172.354C381.152 172.28 381.079 172.218 380.996 172.173C380.913 172.129 380.821 172.101 380.727 172.094C380.633 172.086 380.539 172.099 380.45 172.13C380.36 172.161 380.279 172.21 380.21 172.274C361.63 188.074 353.72 216.994 359.76 255.464C359.772 255.551 359.801 255.635 359.846 255.711C359.891 255.786 359.951 255.852 360.022 255.904C360.093 255.956 360.173 255.994 360.259 256.014C360.344 256.035 360.433 256.038 360.52 256.024L360.75 256.004Z" fill="white"/>
<path d="M372.688 269.514C372.618 263.754 375.798 251.194 383.328 240.244C392.828 226.424 407.648 221.904 409.158 214.664C410.978 205.964 401.868 200.994 390.078 205.214C375.888 210.294 359.138 230.724 364.948 265.164L372.688 269.514Z" fill="#181818"/>
<path d="M368.819 263.453C368.947 263.403 369.058 263.317 369.138 263.205C369.218 263.093 369.263 262.961 369.269 262.823C370.869 232.253 389.019 216.243 398.399 212.053C398.573 211.975 398.708 211.831 398.775 211.653C398.843 211.475 398.837 211.277 398.759 211.103C398.723 211.016 398.668 210.936 398.6 210.87C398.532 210.804 398.451 210.753 398.362 210.719C398.273 210.686 398.178 210.67 398.083 210.674C397.988 210.679 397.895 210.702 397.809 210.743C387.439 215.373 369.469 231.543 367.809 262.743C367.805 262.838 367.82 262.932 367.852 263.021C367.885 263.11 367.935 263.192 367.999 263.262C368.063 263.331 368.14 263.388 368.226 263.427C368.312 263.467 368.405 263.49 368.499 263.493C368.608 263.508 368.718 263.494 368.819 263.453Z" fill="white"/>
<path d="M226.209 358.793L212.999 366.453C212.154 366.874 211.223 367.093 210.279 367.093C209.335 367.093 208.403 366.874 207.559 366.453L197.269 360.453L165.549 378.813C164.705 379.243 163.771 379.467 162.824 379.467C161.876 379.467 160.942 379.243 160.099 378.813L149.419 372.643C147.659 371.643 146.659 370.553 146.419 369.383L138.549 330.033C138.506 329.802 138.486 329.568 138.489 329.333C138.489 330.093 138.489 339.913 138.489 340.393C138.491 340.594 138.511 340.795 138.549 340.993L146.419 380.343C146.689 381.513 147.689 382.603 149.419 383.613L160.099 389.783C160.945 390.204 161.878 390.423 162.824 390.423C163.769 390.423 164.702 390.204 165.549 389.783L197.269 371.453L207.549 377.373C208.391 377.802 209.323 378.025 210.269 378.025C211.214 378.025 212.146 377.802 212.989 377.373L226.199 369.753C226.511 369.617 226.78 369.398 226.976 369.119C227.172 368.841 227.287 368.513 227.309 368.173V357.173C227.291 357.518 227.179 357.851 226.985 358.137C226.791 358.422 226.522 358.649 226.209 358.793Z" fill="#B68C5A"/>
<path d="M225.698 354.093V343.093C225.675 343.433 225.56 343.759 225.364 344.038C225.168 344.317 224.9 344.536 224.588 344.673L215.918 349.673L225.278 355.073C225.534 354.809 225.684 354.46 225.698 354.093Z" fill="#B68C5A"/>
<path d="M165.568 352.542L172.138 356.352L181.638 350.872L163.088 340.152L165.548 352.542H165.568Z" fill="#B68C5A"/>
<path opacity="0.35" d="M165.568 352.542L172.138 356.352L181.638 350.872L163.088 340.152L165.548 352.542H165.568Z" fill="#181818"/>
<path opacity="0.2" d="M225.698 354.093V343.093C225.675 343.433 225.56 343.759 225.364 344.038C225.168 344.317 224.9 344.536 224.588 344.673L215.918 349.673L225.278 355.073C225.534 354.809 225.684 354.46 225.698 354.093Z" fill="#181818"/>
<path opacity="0.2" d="M226.208 358.793L212.998 366.453C212.161 366.905 211.218 367.126 210.268 367.093V378.093C211.22 378.128 212.163 377.903 212.998 377.443L226.208 369.823C226.52 369.688 226.789 369.468 226.985 369.189C227.181 368.911 227.296 368.583 227.318 368.243V357.243C227.287 357.577 227.167 357.896 226.972 358.168C226.777 358.441 226.513 358.656 226.208 358.793Z" fill="#181818"/>
<path opacity="0.25" d="M146.348 369.383L138.478 330.033C138.436 329.802 138.415 329.568 138.418 329.333C138.418 330.093 138.418 339.913 138.418 340.393C138.42 340.594 138.44 340.795 138.478 340.993L146.348 380.343C146.395 380.577 146.476 380.803 146.588 381.013V370.013C146.48 369.815 146.4 369.603 146.348 369.383Z" fill="#181818"/>
<path opacity="0.35" d="M162.778 379.453C161.83 379.476 160.893 379.252 160.058 378.803L149.378 372.633C148.207 372.067 147.235 371.161 146.588 370.033V381.033C147.238 382.159 148.21 383.064 149.378 383.633L160.058 389.803C160.894 390.248 161.831 390.469 162.778 390.443C162.881 390.453 162.985 390.453 163.088 390.443V379.453C162.985 379.468 162.881 379.468 162.778 379.453Z" fill="#181818"/>
<path opacity="0.2" d="M165.549 378.813C164.809 379.224 163.975 379.438 163.129 379.433V390.433C163.974 390.428 164.805 390.215 165.549 389.813L197.269 371.453V360.453L165.549 378.813Z" fill="#181818"/>
<path opacity="0.35" d="M207.548 366.453L197.268 360.453V371.453L207.548 377.373C208.375 377.832 209.312 378.057 210.258 378.023V367.023C209.32 367.077 208.384 366.88 207.548 366.453Z" fill="#181818"/>
<path d="M212.998 366.453C212.152 366.874 211.219 367.093 210.273 367.093C209.328 367.093 208.395 366.874 207.548 366.453L197.268 360.453L165.548 378.813C164.702 379.234 163.769 379.453 162.823 379.453C161.878 379.453 160.945 379.234 160.098 378.813L149.418 372.643C147.672 371.636 146.672 370.549 146.418 369.383L138.558 330.033C138.398 329.425 138.469 328.78 138.758 328.223C139.217 327.634 139.801 327.156 140.468 326.823L155.698 318.033C156.543 317.612 157.474 317.393 158.418 317.393C159.362 317.393 160.293 317.612 161.138 318.033L199.858 340.393L208.528 335.393C209.375 334.972 210.308 334.752 211.253 334.752C212.199 334.752 213.132 334.972 213.978 335.393L224.548 341.553C224.874 341.667 225.157 341.881 225.356 342.163C225.556 342.445 225.663 342.782 225.663 343.128C225.663 343.473 225.556 343.81 225.356 344.092C225.157 344.374 224.874 344.588 224.548 344.703L215.878 349.703L226.168 355.643C226.491 355.76 226.77 355.973 226.967 356.254C227.164 356.535 227.269 356.87 227.269 357.213C227.269 357.556 227.164 357.89 226.967 358.171C226.77 358.452 226.491 358.666 226.168 358.783L212.998 366.453ZM181.638 350.913L163.088 340.203L166.918 359.413L181.638 350.913Z" fill="#B68C5A"/>
<path d="M297.189 310.103C297.02 313.054 295.94 315.88 294.099 318.193C291.946 321.133 288.349 324.063 283.309 326.983C278.558 329.773 273.433 331.871 268.089 333.213C263.183 334.43 258.143 335.025 253.089 334.983C248.334 334.945 243.605 334.289 239.019 333.033C234.705 331.859 230.526 330.237 226.549 328.193C223.669 326.686 220.646 325.02 217.479 323.193C214.312 321.366 211.356 319.58 208.609 317.833C205.464 315.879 202.644 313.446 200.249 310.623C198.239 308.375 197.048 305.513 196.869 302.503C196.929 304.243 196.799 311.553 196.869 313.503C197.045 316.517 198.237 319.382 200.249 321.633C202.649 324.451 205.469 326.883 208.609 328.843C211.369 330.596 214.326 332.38 217.479 334.193C220.632 336.006 223.656 337.673 226.549 339.193C230.541 341.232 234.733 342.85 239.059 344.023C243.646 345.274 248.375 345.93 253.129 345.973C258.184 346.012 263.223 345.413 268.129 344.193C273.473 342.85 278.598 340.753 283.349 337.963C288.402 335.05 291.999 332.12 294.139 329.173C296.119 326.727 297.205 323.679 297.219 320.533C297.119 318.903 297.229 312.593 297.189 310.103Z" fill="#B68C5A"/>
<path opacity="0.35" d="M255.809 334.933C254.909 334.933 254.009 335.003 253.119 334.933C248.364 334.895 243.635 334.239 239.049 332.983C234.727 331.827 230.537 330.221 226.549 328.193C223.669 326.686 220.646 325.02 217.479 323.193C214.312 321.366 211.356 319.58 208.609 317.833C205.464 315.879 202.644 313.446 200.249 310.623C198.239 308.375 197.048 305.513 196.869 302.503C196.929 304.243 196.799 311.553 196.869 313.503C197.045 316.517 198.237 319.382 200.249 321.633C202.649 324.451 205.469 326.883 208.609 328.843C211.369 330.596 214.326 332.38 217.479 334.193C220.632 336.006 223.656 337.673 226.549 339.193C230.541 341.232 234.733 342.85 239.059 344.023C243.646 345.274 248.375 345.93 253.129 345.973C254.019 345.973 254.919 345.973 255.819 345.913L255.809 334.933Z" fill="#181818"/>
<path opacity="0.2" d="M297.189 310.103C297.02 313.054 295.94 315.88 294.099 318.193C291.945 321.133 288.349 324.063 283.309 326.983C278.557 329.772 273.432 331.87 268.089 333.213C264.063 334.196 259.949 334.772 255.809 334.933V345.933C259.95 345.782 264.065 345.206 268.089 344.213C273.432 342.87 278.557 340.772 283.309 337.983C288.362 335.069 291.959 332.139 294.099 329.193C296.078 326.747 297.165 323.699 297.179 320.553C297.119 318.903 297.229 312.593 297.189 310.103Z" fill="#181818"/>
<path d="M223.829 304.273C224.445 304.906 225.114 305.485 225.829 306.003C226.169 305.783 226.499 305.563 226.879 305.343C228.731 304.253 230.737 303.447 232.829 302.953C234.698 302.536 236.618 302.391 238.529 302.523C240.384 302.662 242.215 303.031 243.979 303.623C245.82 304.259 247.62 305.008 249.369 305.863C255.216 308.943 260.862 312.207 266.309 315.653C267.019 316.093 267.679 316.553 268.309 316.993C269.513 316.288 270.561 315.346 271.389 314.223C272.085 313.266 272.376 312.073 272.199 310.903C271.917 309.682 271.268 308.576 270.339 307.733C269.111 306.6 267.771 305.595 266.339 304.733C260.886 301.273 255.239 298.013 249.399 294.953C247.652 294.09 245.851 293.339 244.009 292.703C242.244 292.116 240.414 291.747 238.559 291.603C236.648 291.475 234.728 291.623 232.859 292.043C230.766 292.529 228.759 293.332 226.909 294.423C225.296 295.253 223.886 296.427 222.779 297.863C222.436 298.33 222.192 298.861 222.061 299.425C221.93 299.989 221.916 300.574 222.019 301.143C222.338 302.327 222.962 303.406 223.829 304.273Z" fill="#B68C5A"/>
<path opacity="0.35" d="M223.829 304.273C224.445 304.906 225.114 305.485 225.829 306.003C226.169 305.783 226.499 305.563 226.879 305.343C228.731 304.253 230.737 303.447 232.829 302.953C234.698 302.536 236.618 302.391 238.529 302.523C240.384 302.662 242.215 303.031 243.979 303.623C245.82 304.259 247.62 305.008 249.369 305.863C255.216 308.943 260.862 312.207 266.309 315.653C267.019 316.093 267.679 316.553 268.309 316.993C269.513 316.288 270.561 315.346 271.389 314.223C272.085 313.266 272.376 312.073 272.199 310.903C271.917 309.682 271.268 308.576 270.339 307.733C269.111 306.6 267.771 305.595 266.339 304.733C260.886 301.273 255.239 298.013 249.399 294.953C247.652 294.09 245.851 293.339 244.009 292.703C242.244 292.116 240.414 291.747 238.559 291.603C236.648 291.475 234.728 291.623 232.859 292.043C230.766 292.529 228.759 293.332 226.909 294.423C225.296 295.253 223.886 296.427 222.779 297.863C222.436 298.33 222.192 298.861 222.061 299.425C221.93 299.989 221.916 300.574 222.019 301.143C222.338 302.327 222.962 303.406 223.829 304.273Z" fill="#181818"/>
<path d="M210.717 285.063C215.47 282.269 220.599 280.171 225.947 278.833C230.853 277.615 235.893 277.02 240.947 277.063C245.702 277.102 250.431 277.757 255.017 279.013C259.341 280.184 263.53 281.802 267.517 283.843C270.537 285.436 273.631 287.143 276.797 288.963C279.957 290.793 282.797 292.533 285.467 294.203C288.607 296.171 291.43 298.606 293.837 301.423C295.843 303.673 297.03 306.534 297.207 309.543C297.202 312.689 296.118 315.738 294.137 318.183C291.991 321.129 288.394 324.063 283.347 326.983C278.594 329.774 273.465 331.868 268.117 333.203C263.213 334.429 258.173 335.027 253.117 334.983C248.366 334.939 243.641 334.284 239.057 333.033C234.73 331.863 230.538 330.245 226.547 328.203C223.657 326.683 220.637 325.023 217.477 323.203C214.317 321.383 211.357 319.593 208.597 317.853C205.459 315.887 202.639 313.452 200.237 310.633C198.226 308.385 197.035 305.523 196.857 302.513C196.868 299.364 197.951 296.313 199.927 293.863C202.081 290.923 205.677 287.989 210.717 285.063ZM266.277 304.683C260.824 301.229 255.177 297.969 249.337 294.903C247.592 294.038 245.791 293.29 243.947 292.663C242.2 292.071 240.386 291.699 238.547 291.553C236.636 291.424 234.716 291.572 232.847 291.993C230.753 292.478 228.746 293.284 226.897 294.383C225.281 295.202 223.87 296.374 222.767 297.813C222.422 298.28 222.177 298.813 222.046 299.379C221.915 299.945 221.902 300.531 222.007 301.103C222.327 302.311 222.974 303.408 223.877 304.273C225.058 305.458 226.377 306.495 227.807 307.363C233.284 310.909 238.938 314.173 244.747 317.143C246.447 318.048 248.216 318.817 250.037 319.443C251.815 320.043 253.665 320.403 255.537 320.513C257.466 320.631 259.402 320.476 261.287 320.053C263.382 319.568 265.389 318.761 267.237 317.663C268.851 316.84 270.262 315.668 271.367 314.233C271.714 313.76 271.964 313.223 272.103 312.653C272.242 312.084 272.267 311.492 272.177 310.913C271.894 309.689 271.241 308.583 270.307 307.743C269.08 306.578 267.729 305.552 266.277 304.683Z" fill="#B68C5A"/>
<path d="M373.487 273.753L360.277 281.373C359.435 281.801 358.503 282.024 357.557 282.024C356.612 282.024 355.68 281.801 354.837 281.373L344.547 275.453L312.777 293.803C311.942 294.25 311.004 294.471 310.057 294.443C309.107 294.47 308.166 294.249 307.327 293.803L296.647 287.623C294.901 286.623 293.901 285.536 293.647 284.363L285.777 245.013C285.759 244.78 285.759 244.545 285.777 244.312C285.777 245.072 285.777 254.893 285.777 255.373C285.764 255.576 285.764 255.779 285.777 255.983L293.647 295.333C293.917 296.503 294.927 297.583 296.647 298.593L307.327 304.763C308.165 305.212 309.106 305.436 310.057 305.413C311.005 305.438 311.943 305.213 312.777 304.763L344.547 286.453L354.827 292.393C355.672 292.813 356.603 293.033 357.547 293.033C358.491 293.033 359.422 292.813 360.267 292.393L373.477 284.773C373.789 284.636 374.058 284.416 374.253 284.138C374.449 283.859 374.565 283.532 374.587 283.193V272.193C374.562 272.528 374.446 272.85 374.253 273.124C374.059 273.399 373.794 273.616 373.487 273.753Z" fill="#B68C5A"/>
<path d="M372.987 269.053V258.053C372.963 258.391 372.847 258.716 372.651 258.992C372.455 259.269 372.188 259.487 371.877 259.623L363.197 264.623L372.567 270.023C372.815 269.758 372.964 269.415 372.987 269.053Z" fill="#B68C5A"/>
<path d="M312.849 267.513L319.419 271.323L328.929 265.843L310.369 255.123L312.839 267.513H312.849Z" fill="#B68C5A"/>
<path opacity="0.35" d="M312.849 267.513L319.419 271.323L328.929 265.843L310.369 255.123L312.839 267.513H312.849Z" fill="#181818"/>
<path opacity="0.2" d="M372.987 269.053V258.053C372.963 258.391 372.847 258.716 372.651 258.992C372.455 259.269 372.188 259.487 371.877 259.623L363.197 264.623L372.567 270.023C372.815 269.758 372.964 269.415 372.987 269.053Z" fill="#181818"/>
<path opacity="0.2" d="M373.489 273.753L360.279 281.373C359.448 281.832 358.507 282.056 357.559 282.023V293.023C358.506 293.054 359.445 292.834 360.279 292.383L373.489 284.763C373.8 284.626 374.069 284.407 374.265 284.128C374.46 283.849 374.576 283.522 374.599 283.183V272.183C374.574 272.521 374.458 272.845 374.262 273.122C374.067 273.399 373.799 273.617 373.489 273.753Z" fill="#181818"/>
<path opacity="0.25" d="M293.628 284.343L285.758 244.993C285.74 244.76 285.74 244.526 285.758 244.293C285.758 245.053 285.758 254.873 285.758 255.353C285.744 255.556 285.744 255.76 285.758 255.963L293.628 295.313C293.68 295.543 293.764 295.766 293.878 295.973V284.973C293.767 284.775 293.683 284.563 293.628 284.343Z" fill="#181818"/>
<path opacity="0.35" d="M310.069 294.453C309.119 294.48 308.178 294.259 307.339 293.813L296.659 287.633C295.49 287.073 294.52 286.169 293.879 285.043V296.043C294.519 297.173 295.489 298.08 296.659 298.643L307.339 304.813C308.177 305.263 309.118 305.487 310.069 305.463C310.168 305.478 310.269 305.478 310.369 305.463V294.453C310.269 294.463 310.169 294.463 310.069 294.453Z" fill="#181818"/>
<path opacity="0.2" d="M312.789 293.783C312.046 294.186 311.215 294.399 310.369 294.403V305.403C311.216 305.409 312.05 305.195 312.789 304.783L344.549 286.453V275.453L312.789 293.783Z" fill="#181818"/>
<path opacity="0.35" d="M354.839 281.373L344.549 275.453V286.453L354.829 292.393C355.662 292.845 356.601 293.066 357.549 293.033V282.033C356.602 282.063 355.666 281.835 354.839 281.373Z" fill="#181818"/>
<path d="M360.278 281.373C359.433 281.794 358.502 282.013 357.558 282.013C356.614 282.013 355.683 281.794 354.838 281.373L344.548 275.453L312.788 293.793C311.943 294.214 311.012 294.433 310.068 294.433C309.124 294.433 308.193 294.214 307.348 293.793L296.658 287.623C294.908 286.623 293.898 285.533 293.658 284.363L285.798 245.013C285.641 244.409 285.713 243.768 285.998 243.213C286.454 242.622 287.039 242.143 287.708 241.813L302.938 233.023C303.783 232.602 304.714 232.383 305.658 232.383C306.602 232.383 307.533 232.602 308.378 233.023L347.098 255.373L355.768 250.373C356.612 249.943 357.546 249.718 358.493 249.718C359.44 249.718 360.374 249.943 361.218 250.373L371.908 256.543C372.231 256.66 372.509 256.873 372.706 257.154C372.903 257.435 373.009 257.77 373.009 258.113C373.009 258.456 372.903 258.791 372.706 259.072C372.509 259.352 372.231 259.566 371.908 259.683L363.238 264.683L373.518 270.613C373.844 270.728 374.126 270.941 374.326 271.223C374.526 271.505 374.633 271.842 374.633 272.188C374.633 272.533 374.526 272.871 374.326 273.153C374.126 273.435 373.844 273.648 373.518 273.763L360.278 281.373ZM328.918 265.833L310.368 255.123L314.198 274.333L328.918 265.833Z" fill="#B68C5A"/>
<path d="M291.929 366.613C292.184 366.477 292.47 366.411 292.759 366.423C293.047 366.412 293.334 366.478 293.589 366.613L296.839 368.503C296.939 368.536 297.026 368.599 297.088 368.685C297.15 368.77 297.183 368.873 297.183 368.978C297.183 369.083 297.15 369.186 297.088 369.271C297.026 369.356 296.939 369.42 296.839 369.453L282.279 377.863C282.025 378.002 281.738 378.071 281.449 378.063C281.159 378.072 280.873 378.003 280.619 377.863L260.769 366.453C260.653 366.43 260.549 366.367 260.475 366.276C260.4 366.185 260.359 366.071 260.359 365.953C260.359 365.835 260.4 365.721 260.475 365.63C260.549 365.539 260.653 365.476 260.769 365.453L275.089 357.193C275.343 357.053 275.629 356.984 275.919 356.993C276.208 356.987 276.494 357.055 276.749 357.193L279.999 359.073C280.099 359.106 280.186 359.169 280.248 359.255C280.31 359.34 280.343 359.443 280.343 359.548C280.343 359.653 280.31 359.756 280.248 359.841C280.186 359.926 280.099 359.99 279.999 360.023L270.549 365.453L273.869 367.363L282.659 362.293C282.914 362.157 283.2 362.091 283.489 362.103C283.777 362.093 284.063 362.159 284.319 362.293L287.569 364.173C287.684 364.196 287.788 364.259 287.863 364.35C287.938 364.441 287.978 364.555 287.978 364.673C287.978 364.791 287.938 364.905 287.863 364.996C287.788 365.087 287.684 365.15 287.569 365.173L278.779 370.243L282.229 372.243L291.929 366.613Z" fill="#181818"/>
<path d="M296.778 351.043C297.033 350.905 297.319 350.836 297.608 350.843C297.898 350.834 298.185 350.903 298.438 351.043L301.548 352.833C301.664 352.856 301.768 352.918 301.842 353.009C301.917 353.101 301.958 353.215 301.958 353.333C301.958 353.45 301.917 353.565 301.842 353.656C301.768 353.747 301.664 353.809 301.548 353.833L298.748 355.453C296.868 356.546 296.868 357.636 298.748 358.723L306.308 363.083C306.424 363.106 306.528 363.168 306.602 363.259C306.677 363.351 306.718 363.465 306.718 363.583C306.718 363.7 306.677 363.815 306.602 363.906C306.528 363.997 306.424 364.059 306.308 364.083L302.438 366.313C302.184 366.451 301.898 366.52 301.608 366.513C301.319 366.521 301.032 366.452 300.778 366.313L286.458 358.053C286.343 358.029 286.239 357.967 286.164 357.876C286.09 357.785 286.049 357.67 286.049 357.553C286.049 357.435 286.09 357.321 286.164 357.229C286.239 357.138 286.343 357.076 286.458 357.053L290.018 354.993C290.272 354.854 290.559 354.785 290.848 354.793C291.138 354.784 291.425 354.853 291.678 354.993L292.388 355.403C292.428 354.813 292.637 354.247 292.988 353.773C293.514 353.098 294.179 352.546 294.938 352.153L296.778 351.043Z" fill="#181818"/>
<path d="M311.657 342.453C311.911 342.313 312.198 342.244 312.487 342.253C312.777 342.245 313.063 342.314 313.317 342.453L316.417 344.243C316.533 344.266 316.637 344.328 316.712 344.42C316.786 344.511 316.827 344.625 316.827 344.743C316.827 344.861 316.786 344.975 316.712 345.066C316.637 345.157 316.533 345.219 316.417 345.243L313.617 346.853C311.737 347.939 311.737 349.029 313.617 350.123L321.177 354.483C321.293 354.506 321.397 354.568 321.472 354.66C321.546 354.751 321.587 354.865 321.587 354.983C321.587 355.101 321.546 355.215 321.472 355.306C321.397 355.397 321.293 355.459 321.177 355.483L317.307 357.723C317.053 357.859 316.766 357.925 316.477 357.913C316.189 357.922 315.903 357.857 315.647 357.723L301.327 349.453C301.212 349.429 301.108 349.367 301.033 349.276C300.959 349.185 300.918 349.071 300.918 348.953C300.918 348.835 300.959 348.721 301.033 348.63C301.108 348.538 301.212 348.476 301.327 348.453L304.897 346.393C305.152 346.256 305.439 346.191 305.727 346.203C306.016 346.193 306.302 346.259 306.557 346.393L307.257 346.803C307.298 346.216 307.506 345.654 307.857 345.183C308.385 344.508 309.05 343.952 309.807 343.553L311.657 342.453Z" fill="#181818"/>
<path d="M338.089 335.073C338.409 335.233 338.819 335.453 339.299 335.733C339.779 336.013 340.169 336.243 340.449 336.433C341.292 336.927 342.007 337.612 342.539 338.433C342.976 339.109 343.176 339.91 343.109 340.713C342.996 341.594 342.624 342.423 342.039 343.093C341.234 344.018 340.269 344.791 339.189 345.373C337.95 346.091 336.622 346.642 335.239 347.013C333.898 347.378 332.518 347.586 331.129 347.633C329.804 347.676 328.478 347.565 327.179 347.303C325.981 347.068 324.823 346.664 323.739 346.103C323.409 345.933 322.999 345.713 322.519 345.433C322.039 345.153 321.659 344.923 321.369 344.733C320.512 344.245 319.785 343.559 319.249 342.733C318.809 342.055 318.615 341.246 318.699 340.443C318.82 339.56 319.191 338.731 319.769 338.053C320.56 337.118 321.52 336.341 322.599 335.763C323.852 335.037 325.197 334.485 326.599 334.123C327.956 333.767 329.347 333.559 330.749 333.503C332.074 333.459 333.4 333.569 334.699 333.833C335.881 334.086 337.022 334.504 338.089 335.073ZM329.089 342.803C329.918 343.221 330.841 343.417 331.769 343.373C332.698 343.342 333.606 343.081 334.409 342.613C335.229 342.139 335.669 341.629 335.729 341.083C335.789 340.543 335.469 340.023 334.729 339.543C334.409 339.309 334.075 339.095 333.729 338.903C333.349 338.683 332.979 338.493 332.629 338.333C331.795 337.924 330.872 337.728 329.944 337.763C329.015 337.798 328.11 338.062 327.309 338.533C326.489 339.003 326.049 339.533 325.989 340.053C325.929 340.573 326.259 341.113 326.989 341.603C327.642 342.073 328.343 342.475 329.079 342.803H329.089Z" fill="#181818"/>
<path d="M346.077 322.583C346.331 322.443 346.618 322.374 346.907 322.383C347.197 322.375 347.483 322.444 347.737 322.583L350.837 324.373C350.953 324.396 351.057 324.458 351.131 324.549C351.206 324.641 351.247 324.755 351.247 324.873C351.247 324.99 351.206 325.105 351.131 325.196C351.057 325.287 350.953 325.349 350.837 325.373L348.037 326.983C346.157 328.069 346.157 329.159 348.037 330.253L355.597 334.613C355.713 334.636 355.817 334.698 355.891 334.789C355.966 334.881 356.007 334.995 356.007 335.113C356.007 335.23 355.966 335.345 355.891 335.436C355.817 335.527 355.713 335.589 355.597 335.613L351.727 337.843C351.474 337.982 351.187 338.051 350.897 338.043C350.608 338.049 350.322 337.98 350.067 337.843L335.747 329.583C335.632 329.559 335.528 329.497 335.453 329.406C335.379 329.315 335.338 329.2 335.338 329.083C335.338 328.965 335.379 328.851 335.453 328.759C335.528 328.668 335.632 328.606 335.747 328.583L339.317 326.523C339.571 326.383 339.858 326.314 340.147 326.323C340.437 326.316 340.723 326.385 340.977 326.523L341.677 326.933C341.717 326.343 341.926 325.777 342.277 325.303C342.803 324.628 343.468 324.076 344.227 323.683L346.077 322.583Z" fill="#181818"/>
<path d="M134.139 231.813C129.919 231.643 128.059 232.063 128.709 236.523C129.359 240.983 129.559 244.423 129.559 244.423C129.559 244.423 137.069 244.643 140.559 242.693C144.049 240.743 140.479 232.063 134.139 231.813Z" fill="#B68C5A"/>
<path opacity="0.5" d="M134.139 231.813C129.919 231.643 128.059 232.063 128.709 236.523C129.359 240.983 129.559 244.423 129.559 244.423C129.559 244.423 137.069 244.643 140.559 242.693C144.049 240.743 140.479 232.063 134.139 231.813Z" fill="#181818"/>
<path d="M134.809 250.974C134.533 250.972 134.259 250.945 133.989 250.894C132.882 250.674 131.908 250.024 131.28 249.087C130.651 248.149 130.421 247.001 130.639 245.894C131.729 240.354 132.809 236.074 133.769 232.304C135.219 227.057 136.272 221.709 136.919 216.304C137.715 207.913 135.907 199.48 131.739 192.154C131.454 191.675 131.267 191.144 131.188 190.592C131.109 190.041 131.139 189.479 131.277 188.939C131.415 188.399 131.658 187.891 131.992 187.445C132.326 186.999 132.744 186.623 133.224 186.339C133.703 186.055 134.234 185.867 134.785 185.788C135.337 185.709 135.899 185.739 136.439 185.877C136.979 186.015 137.486 186.258 137.932 186.592C138.378 186.926 138.754 187.345 139.039 187.824C144.156 196.726 146.366 207.005 145.359 217.224C144.678 223.015 143.555 228.745 141.999 234.364C141.079 238.034 139.999 242.194 138.999 247.514C138.814 248.489 138.294 249.369 137.529 250.001C136.763 250.633 135.801 250.977 134.809 250.974Z" fill="#181818"/>
<path d="M124.649 256.714C124.45 257.532 124.45 258.386 124.649 259.204C125.239 260.304 128.509 261.654 130.229 262.364C132.606 263.279 134.545 265.068 135.649 267.364C137.569 270.874 141.069 273.244 144.979 274.734C150.227 276.578 155.911 276.784 161.279 275.324C167.969 273.654 168.279 269.624 168.279 269.624C168.279 269.624 168.379 265.844 166.659 265.364C164.939 264.884 124.649 256.714 124.649 256.714Z" fill="#181818"/>
<path d="M127.349 242.673C127.158 243.864 126.888 245.04 126.539 246.193C125.539 249.363 123.989 252.633 124.649 256.713C125.749 258.713 128.049 259.413 129.769 260.173C132.079 261.173 133.769 261.883 135.399 263.883C138.399 267.473 141.209 272.013 150.189 273.183C159.169 274.353 165.709 271.083 167.189 268.443C168.669 265.803 167.009 263.533 161.119 260.853C158.119 259.483 151.309 253.853 150.529 253.133C149.807 252.399 149.163 251.591 148.609 250.723C147.371 248.928 146.551 246.878 146.209 244.723C145.945 242.444 146.056 240.137 146.539 237.893C146.639 237.373 146.899 236.833 146.679 236.363C146.109 235.103 144.139 235.433 143.049 235.523C141.419 235.69 139.802 235.968 138.209 236.353C137.681 236.415 137.181 236.627 136.769 236.963C136.441 237.36 136.224 237.836 136.139 238.343C135.929 239.093 135.709 239.843 135.469 240.573C135.415 240.839 135.31 241.091 135.159 241.316C135.008 241.541 134.814 241.734 134.589 241.883C134.338 241.981 134.063 241.998 133.802 241.934C133.541 241.869 133.306 241.726 133.129 241.523C132.787 241.112 132.594 240.598 132.579 240.063C132.579 239.523 132.579 238.993 132.639 238.463C132.696 237.952 132.595 237.435 132.349 236.983C131.759 236.053 130.269 235.903 129.889 234.873C129.807 234.59 129.806 234.289 129.885 234.005C129.965 233.72 130.122 233.464 130.339 233.263C130.793 232.88 131.356 232.649 131.949 232.603C132.531 232.563 133.116 232.563 133.699 232.603L134.019 231.363C132.634 231.16 131.219 231.34 129.929 231.883C129.115 232.227 128.451 232.852 128.059 233.643C127.708 234.63 127.656 235.698 127.909 236.713C128.159 239.053 127.729 240.333 127.349 242.673Z" fill="#B68C5A"/>
<path opacity="0.35" d="M127.349 242.673C127.158 243.864 126.888 245.04 126.539 246.193C125.539 249.363 123.989 252.633 124.649 256.713C125.749 258.713 128.049 259.413 129.769 260.173C132.079 261.173 133.769 261.883 135.399 263.883C138.399 267.473 141.209 272.013 150.189 273.183C159.169 274.353 165.709 271.083 167.189 268.443C168.669 265.803 167.009 263.533 161.119 260.853C158.119 259.483 151.309 253.853 150.529 253.133C149.807 252.399 149.163 251.591 148.609 250.723C147.371 248.928 146.551 246.878 146.209 244.723C145.945 242.444 146.056 240.137 146.539 237.893C146.639 237.373 146.899 236.833 146.679 236.363C146.109 235.103 144.139 235.433 143.049 235.523C141.419 235.69 139.802 235.968 138.209 236.353C137.681 236.415 137.181 236.627 136.769 236.963C136.441 237.36 136.224 237.836 136.139 238.343C135.929 239.093 135.709 239.843 135.469 240.573C135.415 240.839 135.31 241.091 135.159 241.316C135.008 241.541 134.814 241.734 134.589 241.883C134.338 241.981 134.063 241.998 133.802 241.934C133.541 241.869 133.306 241.726 133.129 241.523C132.787 241.112 132.594 240.598 132.579 240.063C132.579 239.523 132.579 238.993 132.639 238.463C132.696 237.952 132.595 237.435 132.349 236.983C131.759 236.053 130.269 235.903 129.889 234.873C129.807 234.59 129.806 234.289 129.885 234.005C129.965 233.72 130.122 233.464 130.339 233.263C130.793 232.88 131.356 232.649 131.949 232.603C132.531 232.563 133.116 232.563 133.699 232.603L134.019 231.363C132.634 231.16 131.219 231.34 129.929 231.883C129.115 232.227 128.451 232.852 128.059 233.643C127.708 234.63 127.656 235.698 127.909 236.713C128.159 239.053 127.729 240.333 127.349 242.673Z" fill="#181818"/>
<path d="M144.229 271.623C144.22 269.535 144.773 267.484 145.828 265.683C146.884 263.881 148.403 262.397 150.229 261.383C156.679 257.523 160.889 259.453 163.039 260.783C165.589 262.373 169.319 265.783 167.379 268.603C165.289 271.603 161.719 273.233 154.909 273.773C148.099 274.313 144.229 271.623 144.229 271.623Z" fill="#FAFAFA"/>
<path d="M135.33 248.453C135.449 248.466 135.569 248.451 135.681 248.407C135.792 248.364 135.891 248.294 135.97 248.203C136.86 247.253 142.27 243.983 146.36 245.663C146.46 245.513 146.63 244.513 146.14 244.203C144.151 243.762 142.084 243.804 140.115 244.326C138.145 244.848 136.329 245.834 134.82 247.203C134.699 247.346 134.639 247.531 134.652 247.717C134.665 247.904 134.75 248.078 134.89 248.203C135.007 248.33 135.161 248.418 135.33 248.453Z" fill="#FAFAFA"/>
<path d="M148.08 249.943C148.081 249.656 148.022 249.373 147.909 249.109C147.795 248.846 147.629 248.609 147.42 248.413C142.76 247.753 138.08 250.683 137.05 251.793C136.931 251.937 136.872 252.123 136.887 252.309C136.902 252.496 136.989 252.67 137.13 252.793C137.253 252.9 137.407 252.963 137.57 252.973C137.688 252.986 137.807 252.971 137.918 252.929C138.03 252.887 138.129 252.82 138.21 252.733C139.07 251.843 144.4 248.753 148.08 249.943Z" fill="#FAFAFA"/>
<path d="M155.129 256.873C155.059 256.393 154.129 255.673 153.339 255.473C148.189 255.123 143.839 259.043 142.989 260.343C142.937 260.424 142.901 260.514 142.885 260.609C142.869 260.704 142.872 260.801 142.895 260.895C142.917 260.988 142.958 261.076 143.016 261.153C143.073 261.23 143.146 261.295 143.229 261.343C143.371 261.427 143.535 261.466 143.699 261.453C143.816 261.444 143.93 261.409 144.032 261.35C144.135 261.291 144.222 261.21 144.289 261.113C145.049 259.963 150.249 255.573 155.129 256.873Z" fill="#FAFAFA"/>
<path d="M140.249 257.454C140.367 257.448 140.482 257.418 140.587 257.364C140.692 257.311 140.785 257.236 140.859 257.144C141.609 256.094 146.129 252.144 150.779 253.334C150.779 252.924 149.959 252.114 149.539 252.004C144.929 251.584 140.469 255.074 139.539 256.304C139.431 256.461 139.391 256.655 139.427 256.843C139.462 257.03 139.571 257.196 139.729 257.304C139.88 257.411 140.063 257.464 140.249 257.454Z" fill="#FAFAFA"/>
<path d="M87.2098 246.563C83.0098 246.223 81.1198 246.563 81.5898 251.043C82.0598 255.523 82.1098 258.973 82.1098 258.973C82.1098 258.973 89.5998 259.503 93.1698 257.703C96.7398 255.903 93.5498 247.083 87.2098 246.563Z" fill="#B68C5A"/>
<path opacity="0.5" d="M87.2098 246.563C83.0098 246.223 81.1198 246.563 81.5898 251.043C82.0598 255.523 82.1098 258.973 82.1098 258.973C82.1098 258.973 89.5998 259.503 93.1698 257.703C96.7398 255.903 93.5498 247.083 87.2098 246.563Z" fill="#181818"/>
<path d="M87.0791 265.734C86.803 265.722 86.5286 265.685 86.2591 265.624C85.7161 265.494 85.2042 265.258 84.7527 264.929C84.3013 264.6 83.9192 264.186 83.6283 263.709C83.3375 263.233 83.1437 262.703 83.058 262.151C82.9723 261.6 82.9965 261.036 83.1291 260.494C84.4491 255.004 85.7091 250.784 86.8191 247.044C88.4932 241.872 89.7702 236.58 90.6391 231.214C91.7866 222.866 90.3341 214.367 86.4791 206.874C86.0323 205.891 85.9764 204.775 86.3228 203.752C86.6691 202.729 87.3918 201.877 88.344 201.367C89.2962 200.858 90.4065 200.731 91.4494 201.01C92.4923 201.29 93.3897 201.956 93.9591 202.874C98.6792 211.968 100.454 222.306 99.0391 232.454C98.1166 238.217 96.7526 243.9 94.9591 249.454C93.8791 253.084 92.6591 257.194 91.3891 262.454C91.1643 263.417 90.6109 264.271 89.8243 264.869C89.0376 265.468 88.0669 265.774 87.0791 265.734Z" fill="#181818"/>
<path d="M76.6903 271.044C76.4457 271.851 76.4011 272.706 76.5603 273.534C77.1003 274.654 80.3003 276.144 81.9903 276.924C84.3322 277.948 86.1929 279.83 87.1903 282.184C88.9703 285.764 92.3703 288.284 96.1903 289.934C101.356 291.995 107.027 292.438 112.45 291.204C119.2 289.824 119.65 285.804 119.65 285.804C119.65 285.804 119.91 282.034 118.21 281.484C116.51 280.934 76.6903 271.044 76.6903 271.044Z" fill="#181818"/>
<path d="M79.9686 257.134C79.7107 258.314 79.3766 259.477 78.9686 260.614C77.8686 263.744 76.1486 266.934 76.6386 271.044C77.6386 273.044 79.9086 273.884 81.6386 274.724C83.9086 275.844 85.5386 276.594 87.1086 278.664C89.9286 282.374 92.5686 287.034 101.499 288.574C110.429 290.114 117.099 287.124 118.679 284.574C120.259 282.024 118.679 279.664 112.929 276.734C109.999 275.244 103.419 269.354 102.669 268.584C100.536 266.17 99.1464 263.19 98.6686 260.004C98.5021 257.716 98.7081 255.416 99.2786 253.194C99.4086 252.684 99.6886 252.194 99.4886 251.664C98.9686 250.384 96.9886 250.664 95.8986 250.664C94.2624 250.759 92.635 250.969 91.0286 251.294C90.4963 251.334 89.9864 251.525 89.5586 251.844C89.2168 252.227 88.9792 252.692 88.8686 253.194C88.6386 253.934 88.3886 254.674 88.1086 255.404C87.9775 255.93 87.6431 256.384 87.1786 256.664C86.9254 256.751 86.6517 256.758 86.3942 256.685C86.1368 256.612 85.9079 256.461 85.7386 256.254C85.4087 255.828 85.2356 255.302 85.2486 254.764C85.2616 254.229 85.305 253.694 85.3786 253.164C85.4507 252.655 85.3707 252.137 85.1486 251.674C84.5986 250.724 83.1486 250.514 82.7786 249.464C82.7036 249.179 82.7128 248.877 82.8051 248.597C82.8974 248.317 83.0687 248.069 83.2986 247.884C83.76 247.509 84.3343 247.302 84.9286 247.294C85.5146 247.255 86.1026 247.255 86.6886 247.294L87.0486 246.074C85.673 245.813 84.2525 245.93 82.9386 246.414C82.1105 246.727 81.4222 247.327 80.9986 248.104C80.6117 249.072 80.5144 250.132 80.7186 251.154C80.9286 253.554 80.4486 254.804 79.9686 257.134Z" fill="#B68C5A"/>
<path opacity="0.35" d="M79.9686 257.134C79.7107 258.314 79.3766 259.477 78.9686 260.614C77.8686 263.744 76.1486 266.934 76.6386 271.044C77.6386 273.044 79.9086 273.884 81.6386 274.724C83.9086 275.844 85.5386 276.594 87.1086 278.664C89.9286 282.374 92.5686 287.034 101.499 288.574C110.429 290.114 117.099 287.124 118.679 284.574C120.259 282.024 118.679 279.664 112.929 276.734C109.999 275.244 103.419 269.354 102.669 268.584C100.536 266.17 99.1464 263.19 98.6686 260.004C98.5021 257.716 98.7081 255.416 99.2786 253.194C99.4086 252.684 99.6886 252.194 99.4886 251.664C98.9686 250.384 96.9886 250.664 95.8986 250.664C94.2624 250.759 92.635 250.969 91.0286 251.294C90.4963 251.334 89.9864 251.525 89.5586 251.844C89.2168 252.227 88.9792 252.692 88.8686 253.194C88.6386 253.934 88.3886 254.674 88.1086 255.404C87.9775 255.93 87.6431 256.384 87.1786 256.664C86.9254 256.751 86.6517 256.758 86.3942 256.685C86.1368 256.612 85.9079 256.461 85.7386 256.254C85.4087 255.828 85.2356 255.302 85.2486 254.764C85.2616 254.229 85.305 253.694 85.3786 253.164C85.4507 252.655 85.3707 252.137 85.1486 251.674C84.5986 250.724 83.1486 250.514 82.7786 249.464C82.7036 249.179 82.7128 248.877 82.8051 248.597C82.8974 248.317 83.0687 248.069 83.2986 247.884C83.76 247.509 84.3343 247.302 84.9286 247.294C85.5146 247.255 86.1026 247.255 86.6886 247.294L87.0486 246.074C85.673 245.813 84.2525 245.93 82.9386 246.414C82.1105 246.727 81.4222 247.327 80.9986 248.104C80.6117 249.072 80.5144 250.132 80.7186 251.154C80.9286 253.554 80.4486 254.804 79.9686 257.134Z" fill="#181818"/>
<path d="M95.6191 286.764C95.6945 284.675 96.3301 282.644 97.4596 280.885C98.5891 279.125 100.171 277.702 102.039 276.764C108.649 273.174 112.779 275.274 114.869 276.704C117.349 278.394 120.929 281.974 118.869 284.704C116.649 287.634 113.019 289.094 106.189 289.344C99.3591 289.594 95.6191 286.764 95.6191 286.764Z" fill="#FAFAFA"/>
<path d="M87.7091 263.194C87.8263 263.212 87.9462 263.202 88.059 263.166C88.1719 263.129 88.2747 263.067 88.3591 262.984C89.2791 262.064 94.8191 258.984 98.8391 260.884C98.9491 260.724 99.1591 259.744 98.6791 259.414C96.7082 258.891 94.6404 258.848 92.6497 259.29C90.659 259.732 88.8035 260.646 87.2391 261.954C87.1072 262.087 87.0332 262.266 87.0332 262.454C87.0332 262.641 87.1072 262.821 87.2391 262.954C87.3626 263.086 87.5291 263.171 87.7091 263.194Z" fill="#FAFAFA"/>
<path d="M100.38 265.274C100.398 264.986 100.354 264.697 100.251 264.428C100.147 264.159 99.9865 263.915 99.7799 263.714C95.1599 262.854 90.3599 265.584 89.2899 266.654C89.158 266.787 89.084 266.967 89.084 267.154C89.084 267.341 89.158 267.521 89.2899 267.654C89.4363 267.791 89.6293 267.867 89.8299 267.867C90.0305 267.867 90.2235 267.791 90.3699 267.654C91.2999 266.784 96.7499 263.924 100.38 265.274Z" fill="#FAFAFA"/>
<path d="M107.129 272.453C107.129 271.973 106.129 271.213 105.399 270.983C100.269 270.413 95.7591 274.153 94.8491 275.413C94.7955 275.492 94.7584 275.581 94.74 275.675C94.7215 275.768 94.7221 275.865 94.7417 275.958C94.7613 276.051 94.7995 276.14 94.854 276.218C94.9086 276.296 94.9783 276.363 95.0591 276.413C95.1947 276.505 95.3558 276.55 95.5191 276.543C95.638 276.538 95.7543 276.507 95.8598 276.452C95.9652 276.396 96.0572 276.318 96.1291 276.223C96.9291 275.153 102.309 270.983 107.129 272.453Z" fill="#FAFAFA"/>
<path d="M92.2303 272.454C92.3501 272.454 92.4686 272.429 92.5775 272.379C92.6863 272.329 92.7829 272.255 92.8603 272.164C93.6603 271.164 98.3303 267.384 102.93 268.774C102.98 268.364 102.16 267.534 101.75 267.394C97.1603 266.784 92.5603 270.084 91.6303 271.274C91.5739 271.349 91.5329 271.435 91.5099 271.526C91.4869 271.617 91.4822 271.712 91.4961 271.805C91.5101 271.898 91.5424 271.988 91.5912 272.068C91.64 272.149 91.7043 272.218 91.7803 272.274C91.9067 272.381 92.0647 272.445 92.2303 272.454Z" fill="#FAFAFA"/>
<path d="M195.609 172.853C191.549 172.853 186.489 171.423 180.869 167.593C180.206 167.139 179.751 166.439 179.604 165.648C179.456 164.858 179.629 164.041 180.084 163.378C180.539 162.715 181.239 162.26 182.029 162.113C182.819 161.966 183.636 162.139 184.299 162.593C191.859 167.753 197.299 167.153 199.299 165.983C199.777 165.614 200.17 165.147 200.455 164.615C200.739 164.082 200.908 163.496 200.949 162.893C201.429 159.893 200.449 155.073 196.269 150.353C187.429 140.353 176.339 135.243 159.179 133.193C158.383 133.098 157.658 132.69 157.163 132.06C156.668 131.43 156.444 130.629 156.539 129.833C156.635 129.038 157.042 128.313 157.672 127.818C158.302 127.322 159.103 127.098 159.899 127.193C178.419 129.393 191.029 135.303 200.809 146.353C205.549 151.703 207.809 158.253 206.949 163.873C206.786 165.366 206.288 166.803 205.494 168.077C204.699 169.351 203.628 170.43 202.359 171.233C200.294 172.365 197.963 172.924 195.609 172.853Z" fill="#181818"/>
<path d="M157.229 95.0335C161.819 90.7035 165.869 77.9835 163.779 64.6235C161.689 51.2635 149.349 38.7735 144.429 36.0635C139.509 33.3535 136.049 36.8535 137.429 41.8435C139.249 48.6135 141.519 63.8435 128.869 70.5735C130.276 77.0843 133.13 83.1951 137.219 88.4535C143.739 96.3235 157.229 95.0335 157.229 95.0335Z" fill="#B68C5A"/>
<path opacity="0.75" d="M157.229 95.0335C161.819 90.7035 165.869 77.9835 163.779 64.6235C161.689 51.2635 149.349 38.7735 144.429 36.0635C139.509 33.3535 136.049 36.8535 137.429 41.8435C139.249 48.6135 141.519 63.8435 128.869 70.5735C130.276 77.0843 133.13 83.1951 137.219 88.4535C143.739 96.3235 157.229 95.0335 157.229 95.0335Z" fill="white"/>
<path d="M140.069 44.4534C138.971 44.4574 137.879 44.2956 136.829 43.9734C136.675 43.9229 136.547 43.814 136.472 43.6701C136.397 43.5261 136.382 43.3586 136.429 43.2034C136.454 43.1272 136.494 43.0567 136.546 42.9959C136.598 42.935 136.662 42.8851 136.733 42.8488C136.805 42.8126 136.883 42.7909 136.963 42.7848C137.043 42.7787 137.123 42.7884 137.199 42.8134C141.199 44.0834 146.549 42.6034 147.899 38.4434C147.924 38.3679 147.963 38.2979 148.014 38.2375C148.065 38.177 148.128 38.1273 148.199 38.091C148.269 38.0548 148.346 38.0329 148.425 38.0264C148.504 38.02 148.584 38.0291 148.659 38.0534C148.735 38.0777 148.805 38.1167 148.865 38.168C148.926 38.2194 148.975 38.2821 149.012 38.3527C149.048 38.4232 149.07 38.5003 149.076 38.5793C149.083 38.6584 149.074 38.7379 149.049 38.8134C147.839 42.5634 143.889 44.4534 140.069 44.4534Z" fill="#B68C5A"/>
<path d="M144.62 52.8632C142.267 52.8491 139.961 52.2069 137.94 51.0032C137.809 50.9188 137.715 50.7876 137.678 50.6364C137.641 50.4851 137.663 50.3253 137.739 50.1897C137.816 50.0542 137.942 49.9531 138.091 49.9072C138.24 49.8614 138.4 49.8742 138.54 49.9432C139.875 50.7548 141.359 51.2922 142.904 51.524C144.449 51.7558 146.025 51.6773 147.54 51.2932C153.06 49.9632 154.24 46.7332 154.49 45.4032C154.495 45.3167 154.518 45.2322 154.558 45.1553C154.598 45.0785 154.654 45.0111 154.722 44.9576C154.79 44.904 154.869 44.8656 154.953 44.8449C155.037 44.8241 155.125 44.8216 155.21 44.8373C155.295 44.8531 155.376 44.8868 155.447 44.9362C155.518 44.9856 155.578 45.0497 155.623 45.124C155.667 45.1984 155.695 45.2813 155.705 45.3674C155.715 45.4535 155.706 45.5406 155.68 45.6232C155.38 47.1832 154.03 50.9732 147.82 52.4732C146.772 52.7259 145.698 52.8568 144.62 52.8632Z" fill="#B68C5A"/>
<path d="M150.899 63.3835C148.372 63.4137 145.865 62.9232 143.536 61.9425C141.206 60.9619 139.104 59.5121 137.359 57.6835C137.245 57.5692 137.182 57.4146 137.182 57.2535C137.182 57.0923 137.245 56.9377 137.359 56.8235C137.415 56.766 137.482 56.7203 137.556 56.6891C137.629 56.658 137.709 56.6419 137.789 56.6419C137.869 56.6419 137.948 56.658 138.022 56.6891C138.096 56.7203 138.163 56.766 138.219 56.8235C139.849 58.5333 141.816 59.8876 143.994 60.8013C146.173 61.7151 148.517 62.1686 150.879 62.1335C158.679 62.1335 160.989 58.4734 161.979 56.9134C162.021 56.8449 162.076 56.7854 162.141 56.7386C162.206 56.6917 162.28 56.6585 162.359 56.6408C162.437 56.623 162.518 56.6212 162.597 56.6354C162.676 56.6496 162.752 56.6796 162.819 56.7234C162.955 56.8098 163.052 56.9467 163.088 57.1042C163.123 57.2616 163.095 57.4268 163.009 57.5635C162.019 59.1735 159.359 63.3835 150.899 63.3835Z" fill="#B68C5A"/>
<path d="M154.08 75.5838C151.673 75.5848 149.282 75.1965 147 74.4338C141.26 72.4938 137.11 69.1638 134.68 64.5438C134.624 64.4044 134.622 64.2495 134.674 64.1087C134.726 63.9679 134.828 63.8511 134.96 63.7806C135.092 63.7101 135.246 63.6908 135.392 63.7265C135.537 63.7621 135.665 63.8501 135.75 63.9738C138.07 68.3838 141.87 71.4238 147.39 73.2838C154.99 75.8438 162.25 73.2838 164.28 71.4238C164.401 71.3379 164.549 71.299 164.696 71.3145C164.844 71.33 164.981 71.3987 165.081 71.5078C165.182 71.617 165.239 71.759 165.243 71.9074C165.246 72.0557 165.195 72.2002 165.1 72.3138C163.55 73.7838 159.29 75.5838 154.08 75.5838Z" fill="#B68C5A"/>
<path opacity="0.1" d="M138.74 84.1838C149.63 71.7538 145.42 52.1838 142.74 46.5438C138.97 38.6438 140.57 35.1738 143.87 35.7938C139.26 33.6538 136.11 37.0538 137.39 41.7938C139.21 48.5638 141.48 63.7938 128.83 70.5238C130.122 76.3785 132.562 81.9188 136.01 86.8238C136.989 86.0181 137.902 85.1353 138.74 84.1838Z" fill="#181818"/>
<path d="M167.23 168.804C163.53 159.804 161.69 134.894 162.45 118.534C164.93 118.014 167.96 114.634 166.74 110.264C165.64 106.334 164.57 105.814 161.25 101.574C158.89 98.5739 157.25 94.5739 155.13 91.2939C147.85 80.1539 138.6 72.7239 124.98 69.5139C124.426 69.382 123.905 69.1391 123.447 68.7999C122.99 68.4608 122.606 68.0324 122.319 67.5407C122.032 67.049 121.848 66.5042 121.778 65.9393C121.707 65.3744 121.752 64.801 121.91 64.2539C122.78 61.2539 123.52 57.3339 122.61 54.4539C120.92 49.1339 117.56 48.5939 115.34 49.5839C113.12 50.5739 112.95 52.7739 113.62 56.3439C114.29 59.9139 113.24 60.5439 112.05 60.1639C110.86 59.7839 109.97 53.2839 101.66 50.2339C93.3497 47.1839 87.7397 51.2339 87.8797 54.6139C88.0297 58.3639 90.7497 58.6139 96.5197 59.2739C99.0251 59.5101 101.383 60.5643 103.23 62.2739C103.75 62.8192 104.115 63.4936 104.288 64.2274C104.46 64.9612 104.433 65.7277 104.21 66.4476C103.986 67.1675 103.575 67.8147 103.018 68.3221C102.46 68.8296 101.777 69.1789 101.04 69.3339C79.9097 74.0239 63.5497 91.6339 58.8597 115.394C58.0963 119.662 57.602 123.974 57.3797 128.304C55.9074 125.803 53.5185 123.973 50.7197 123.204C46.6397 122.204 45.0197 124.154 45.0797 125.974C45.1397 127.794 47.3997 128.664 49.6897 129.614C53.3597 131.134 53.9597 132.544 53.9597 132.544C52.0487 132.25 50.0944 132.447 48.2797 133.114C45.7697 134.224 45.1097 136.934 47.5397 137.974C48.8897 138.544 50.9597 137.514 53.0897 136.974C54.4297 136.664 56.9097 136.164 57.0897 137.774C57.0897 141.544 57.0897 145.474 57.1797 149.524C57.4897 160.934 59.4897 168.744 57.6697 179.094C56.2797 186.934 49.4197 193.094 56.3097 199.604C57.5646 200.775 59.0835 201.625 60.7375 202.083C62.3914 202.541 64.1315 202.593 65.8097 202.234C66.9106 202.034 68.0461 202.268 68.9783 202.887C69.9104 203.506 70.5667 204.462 70.8097 205.554C71.5797 208.804 73.9297 212.764 80.5697 214.554C86.6897 216.174 90.5697 214.314 92.9997 212.044C93.3965 211.646 93.8702 211.333 94.392 211.125C94.9137 210.917 95.4725 210.817 96.0342 210.832C96.5958 210.847 97.1485 210.976 97.6584 211.212C98.1684 211.448 98.6247 211.786 98.9997 212.204C101.55 215.254 106.28 218.524 114.83 218.484C123.38 218.444 127.68 214.734 129.83 211.574C130.417 210.665 131.328 210.015 132.379 209.757C133.429 209.498 134.538 209.651 135.48 210.184C138.72 212.104 143.94 213.644 150.48 210.184C155.31 207.604 156.56 202.974 156.68 199.184C156.698 198.599 156.839 198.025 157.094 197.498C157.349 196.972 157.711 196.505 158.158 196.128C158.605 195.75 159.127 195.471 159.689 195.309C160.251 195.146 160.84 195.104 161.42 195.184C163.337 195.58 165.33 195.382 167.132 194.617C168.935 193.853 170.462 192.558 171.51 190.904C176.08 183.944 170.55 176.914 167.23 168.804Z" fill="#B68C5A"/>
<g opacity="0.1">
<path d="M49.6897 129.614C53.3597 131.134 53.9597 132.544 53.9597 132.544C52.0487 132.25 50.0944 132.446 48.2797 133.114C45.7697 134.224 45.1097 136.934 47.5397 137.974C48.8897 138.544 50.9597 137.514 53.0897 136.974C54.4297 136.664 56.9097 136.164 57.0897 137.774C57.0897 141.544 57.0897 145.474 57.1797 149.524C57.4897 160.934 59.4897 168.744 57.6697 179.094C56.2797 186.934 49.4197 193.094 56.3097 199.604C57.7172 200.951 59.4853 201.861 61.3997 202.224C61.1897 202.114 57.9697 196.934 61.7697 189.464C67.1097 178.954 66.7697 172.384 65.3797 151.094C63.6697 125.094 66.8597 113.924 76.3097 95.5236C85.9997 76.6636 101.4 75.7536 107.94 70.7536C111.5 68.0336 110.28 63.1036 107.17 59.9736C104.56 57.3436 100.48 56.2736 98.0697 56.0236C92.8097 55.4836 87.9197 54.5636 88.9097 51.9336C88.2632 52.6568 87.9071 53.5936 87.9097 54.5636C88.0597 58.3136 90.7797 58.5636 96.5497 59.2236C99.0551 59.4597 101.413 60.514 103.26 62.2236C103.78 62.7689 104.145 63.4433 104.318 64.1771C104.49 64.9109 104.463 65.6774 104.24 66.3973C104.016 67.1172 103.605 67.7643 103.048 68.2718C102.49 68.7792 101.807 69.1286 101.07 69.2836C79.9097 74.0236 63.5497 91.6336 58.8597 115.394C58.0963 119.662 57.602 123.973 57.3797 128.304C55.9074 125.802 53.5185 123.973 50.7197 123.204C46.6397 122.204 45.0197 124.154 45.0797 125.974C45.1397 127.794 47.3997 128.664 49.6897 129.614Z" fill="#181818"/>
<path d="M76.2695 205.703C73.5895 202.163 71.4195 201.583 67.6895 202.373C68.4507 202.576 69.1419 202.984 69.6883 203.551C70.2347 204.119 70.6155 204.825 70.7895 205.593C71.5595 208.843 73.9095 212.803 80.5495 214.593C84.8695 215.743 88.0995 215.143 90.4595 213.893C80.8495 215.953 78.9595 209.233 76.2695 205.703Z" fill="#181818"/>
<path d="M122.351 217.263C117.621 217.883 113.191 216.813 108.211 213.163C102.841 209.233 100.211 209.603 96.8906 210.933C97.7126 211.117 98.4509 211.567 98.9906 212.213C101.541 215.263 106.271 218.533 114.821 218.493C117.382 218.515 119.929 218.099 122.351 217.263Z" fill="#181818"/>
<path d="M115.82 54.7933C115.64 51.6333 117.65 49.2533 120.13 50.2933C119.485 49.7251 118.69 49.3557 117.84 49.2297C116.99 49.1037 116.121 49.2265 115.34 49.5833C113.11 50.5833 112.95 52.7733 113.62 56.3433C114.29 59.9133 113.24 60.5433 112.05 60.1633C111.815 60.0383 111.626 59.8423 111.51 59.6033C112.43 61.6033 113.32 63.6033 115.4 62.5233C117.48 61.4433 116 57.9433 115.82 54.7933Z" fill="#181818"/>
</g>
<path opacity="0.2" d="M95.6992 126.884C96.0766 128.304 96.9252 129.555 98.106 130.431C99.2869 131.306 100.73 131.755 102.199 131.704C107.549 131.634 108.139 129.204 110.329 125.884C112.519 122.564 117.229 121.824 121.329 121.754C122.413 121.7 123.467 121.381 124.4 120.826C125.332 120.271 126.115 119.496 126.679 118.569C127.243 117.642 127.572 116.59 127.636 115.507C127.701 114.424 127.499 113.341 127.049 112.354C127.158 113.432 126.961 114.519 126.48 115.49C125.999 116.461 125.253 117.277 124.329 117.844C121.049 119.984 116.689 118.054 112.399 120.104C108.109 122.154 107.739 126.784 104.589 128.254C103.124 128.863 101.52 129.058 99.9519 128.817C98.3837 128.575 96.9124 127.906 95.6992 126.884Z" fill="#181818"/>
<path d="M120.759 124.113C120.59 125.794 119.893 127.379 118.768 128.639C117.643 129.9 116.148 130.772 114.497 131.13C112.846 131.489 111.124 131.316 109.578 130.635C108.031 129.955 106.74 128.803 105.889 127.343C108.009 125.343 108.809 121.943 112.389 120.103C115.219 118.663 117.389 119.323 119.739 119.253C120.582 120.726 120.939 122.426 120.759 124.113Z" fill="#181818"/>
<path d="M101.299 129.453C99.652 129.559 98.0123 129.152 96.6051 128.289C95.1979 127.427 94.0921 126.149 93.4393 124.633C93.3752 124.486 93.3718 124.319 93.4299 124.17C93.4879 124.02 93.6027 123.899 93.7493 123.833C93.822 123.8 93.9007 123.782 93.9806 123.78C94.0605 123.777 94.14 123.791 94.2145 123.82C94.289 123.849 94.357 123.892 94.4145 123.948C94.472 124.003 94.5178 124.07 94.5493 124.143C95.4693 126.223 97.5493 128.613 102.359 128.193C105.049 127.963 106.089 126.353 107.359 124.313C108.451 122.308 110.083 120.649 112.069 119.523C113.891 118.626 115.934 118.279 117.949 118.523C120.144 118.854 122.383 118.336 124.209 117.073C124.877 116.641 125.425 116.049 125.804 115.35C126.184 114.651 126.381 113.868 126.379 113.073C126.4 112.153 126.24 111.238 125.907 110.38C125.574 109.522 125.075 108.738 124.439 108.073C124.31 107.977 124.223 107.834 124.199 107.675C124.175 107.516 124.214 107.353 124.309 107.223C124.355 107.158 124.413 107.103 124.481 107.061C124.548 107.02 124.623 106.992 124.702 106.98C124.78 106.967 124.86 106.971 124.937 106.991C125.014 107.01 125.086 107.045 125.149 107.093C126.359 107.973 127.629 110.583 127.589 113.093C127.587 114.085 127.34 115.061 126.869 115.933C126.398 116.806 125.717 117.548 124.889 118.093C122.846 119.504 120.348 120.096 117.889 119.753C116.089 119.506 114.256 119.795 112.619 120.583C110.824 121.609 109.355 123.12 108.379 124.943C107.059 126.943 105.689 129.093 102.379 129.373C102.059 129.453 101.669 129.453 101.299 129.453Z" fill="#181818"/>
<path d="M118.67 123.244C118.666 123.681 118.532 124.108 118.286 124.469C118.039 124.831 117.691 125.111 117.285 125.274C116.879 125.437 116.434 125.476 116.005 125.386C115.577 125.296 115.186 125.081 114.88 124.769C114.574 124.456 114.368 124.059 114.287 123.629C114.207 123.199 114.256 122.755 114.429 122.353C114.601 121.951 114.889 121.609 115.256 121.37C115.623 121.132 116.052 121.008 116.49 121.014C116.78 121.016 117.066 121.076 117.333 121.19C117.599 121.304 117.841 121.469 118.043 121.676C118.246 121.883 118.405 122.128 118.513 122.397C118.621 122.666 118.674 122.954 118.67 123.244Z" fill="#F5F5F5"/>
<path opacity="0.2" d="M162.439 118.803L161.909 118.533C160.822 118.46 159.779 118.071 158.909 117.413C157.839 116.413 156.639 113.183 153.219 112.353C149.799 111.523 147.879 113.183 144.079 113.353C140.279 113.523 139.009 110.893 138.249 108.693C137.839 112.423 138.899 114.923 141.599 116.023C144.599 117.243 150.039 114.683 152.359 116.023C154.679 117.363 156.019 120.133 158.909 120.453C160.105 120.635 161.326 120.39 162.359 119.763C162.409 119.453 162.429 119.123 162.439 118.803Z" fill="#181818"/>
<path d="M158.95 117.454C158.476 119.347 157.3 120.989 155.66 122.047C154.019 123.105 152.038 123.5 150.118 123.151C148.197 122.803 146.481 121.737 145.317 120.17C144.154 118.604 143.629 116.653 143.85 114.714C143.9 114.263 143.99 113.818 144.12 113.384C146.94 113.314 149.51 111.384 153.26 112.384C156.55 113.264 156.78 115.874 158.95 117.454Z" fill="#181818"/>
<path d="M162.36 119.144C161.521 119.104 160.693 118.928 159.91 118.624C158.499 117.998 157.318 116.95 156.53 115.624C155.781 114.302 154.547 113.323 153.09 112.894C151.197 112.465 149.22 112.598 147.4 113.274C145.31 113.864 143.15 114.474 140.58 112.924C139.413 112.226 138.512 111.158 138.021 109.89C137.53 108.622 137.477 107.226 137.87 105.924C137.896 105.849 137.936 105.779 137.989 105.72C138.042 105.66 138.106 105.612 138.178 105.578C138.249 105.543 138.327 105.523 138.406 105.519C138.486 105.515 138.565 105.527 138.64 105.554C138.716 105.581 138.785 105.622 138.845 105.676C138.904 105.73 138.952 105.795 138.987 105.867C139.021 105.939 139.041 106.018 139.045 106.098C139.049 106.178 139.037 106.258 139.01 106.334C138.72 107.371 138.777 108.475 139.172 109.477C139.568 110.479 140.28 111.324 141.2 111.884C143.33 113.164 145.06 112.674 147.07 112.114C149.102 111.361 151.311 111.225 153.42 111.724C155.163 112.225 156.644 113.383 157.55 114.954C158.217 116.073 159.212 116.959 160.4 117.494C161.063 117.746 161.761 117.892 162.47 117.924C162.629 117.923 162.782 117.983 162.899 118.09C163.015 118.198 163.087 118.345 163.1 118.504C163.104 118.583 163.092 118.663 163.065 118.738C163.038 118.813 162.996 118.882 162.942 118.94C162.888 118.999 162.823 119.046 162.751 119.08C162.678 119.113 162.6 119.131 162.52 119.134L162.36 119.144Z" fill="#181818"/>
<path d="M155.62 117.004C155.616 117.413 155.49 117.811 155.258 118.149C155.027 118.486 154.7 118.747 154.32 118.898C153.94 119.048 153.523 119.083 153.123 118.996C152.724 118.909 152.359 118.706 152.075 118.411C151.792 118.116 151.602 117.743 151.531 117.34C151.46 116.937 151.511 116.522 151.677 116.148C151.842 115.774 152.116 115.458 152.462 115.24C152.808 115.022 153.211 114.912 153.62 114.924C153.889 114.924 154.156 114.978 154.404 115.083C154.652 115.189 154.876 115.343 155.063 115.538C155.25 115.732 155.396 115.962 155.491 116.214C155.587 116.466 155.631 116.734 155.62 117.004Z" fill="#F5F5F5"/>
<path d="M131.36 134.094C120.97 138.744 111.84 147.934 107.62 158.094C105.02 164.344 106.44 169.534 109.92 170.714C116.8 173.034 124.51 162.314 132.18 158.574C139.85 154.834 146.09 158.454 149.98 155.944C154.56 152.994 153.89 145.464 151.43 140.094C148.69 134.074 141.76 129.454 131.36 134.094Z" fill="#181818"/>
<path d="M149.72 156.063C145.91 142.813 133.47 138.683 120.85 140.683C115.113 145.339 110.576 151.302 107.62 158.073C105.02 164.323 106.44 169.513 109.92 170.693C116.8 173.013 124.51 162.293 132.18 158.553C139.6 154.933 145.81 158.263 149.72 156.063Z" fill="#F28F8F"/>
<path opacity="0.1" d="M141.549 156.753C128.779 153.323 120.549 164.293 116.499 164.193C112.449 164.093 110.499 160.563 116.109 151.613C121.719 142.663 133.719 140.213 138.959 142.833C133.729 140.253 127.339 139.663 120.889 140.683C115.152 145.339 110.616 151.302 107.659 158.073C105.059 164.313 106.479 169.513 109.959 170.693C116.839 173.013 124.549 162.293 132.219 158.553C135.132 157.191 138.338 156.572 141.549 156.753Z" fill="#181818"/>
<path d="M146.409 144.074C143.949 145.144 143.979 148.414 141.949 155.364C141.809 155.854 141.669 156.364 141.529 156.764C144.949 156.844 147.839 157.304 149.979 155.924C150.407 155.638 150.8 155.302 151.149 154.924C151.649 149.674 149.009 142.944 146.409 144.074Z" fill="#F5F5F5"/>
<path d="M151.149 154.943C151.206 154.318 151.223 153.69 151.199 153.063C150.497 154.011 149.485 154.683 148.339 154.963C147.031 155.175 145.697 155.175 144.389 154.963C144.389 154.963 145.029 150.903 145.669 147.413C146.089 145.073 147.489 144.053 148.609 144.863C147.919 144.093 147.169 143.743 146.409 144.073C143.949 145.143 143.979 148.413 141.949 155.363C141.809 155.853 141.669 156.363 141.529 156.763C144.949 156.843 147.839 157.303 149.979 155.923C150.406 155.643 150.799 155.315 151.149 154.943Z" fill="#E0E0E0"/>
<path d="M120.02 152.703C117.55 153.773 117.59 157.043 115.56 163.993C114.67 166.993 113.91 169.273 113.32 170.873C116.99 170.173 120.84 166.873 124.75 163.703C125.3 158.453 122.64 151.563 120.02 152.703Z" fill="#F5F5F5"/>
<path d="M124.749 163.693C124.824 162.825 124.824 161.951 124.749 161.083C120.859 163.603 118.519 166.303 117.899 165.963C117.279 165.623 117.819 162.893 118.079 159.893C118.399 156.263 118.849 152.503 121.269 152.763C121.073 152.66 120.857 152.601 120.636 152.591C120.415 152.58 120.194 152.619 119.989 152.703C117.519 153.773 117.559 157.043 115.529 163.993C114.639 166.993 113.879 169.273 113.289 170.873C116.959 170.173 120.809 166.873 124.719 163.703L124.749 163.693Z" fill="#E0E0E0"/>
<path d="M35.309 197.844C34.9694 197.843 34.632 197.789 34.309 197.684C33.9289 197.561 33.5772 197.363 33.2745 197.103C32.9718 196.842 32.7243 196.523 32.5463 196.166C32.3684 195.808 32.2638 195.418 32.2384 195.02C32.2131 194.621 32.2677 194.221 32.399 193.844C40.549 169.754 52.379 159.574 68.919 150.954C69.2722 150.77 69.6582 150.658 70.055 150.623C70.4517 150.588 70.8513 150.632 71.2311 150.752C71.6109 150.872 71.9634 151.065 72.2685 151.321C72.5735 151.577 72.8251 151.891 73.009 152.244C73.1928 152.597 73.3053 152.983 73.34 153.38C73.3746 153.777 73.3308 154.176 73.211 154.556C73.0912 154.936 72.8978 155.288 72.6418 155.593C72.3858 155.898 72.0722 156.15 71.719 156.334C56.129 164.454 45.649 173.514 38.189 195.774C37.9846 196.376 37.5972 196.899 37.0808 197.271C36.5644 197.642 35.9449 197.842 35.309 197.844Z" fill="#181818"/>
<path d="M33.1694 191.673C31.8994 194.973 29.9594 196.303 28.1094 198.253C26.2594 200.203 24.2594 201.383 22.3294 204.423C20.3994 207.463 19.4894 212.623 20.0694 215.033C20.3894 216.393 22.2794 216.403 22.3894 215.213C22.7994 210.773 23.5394 206.953 26.6494 204.583C25.4102 207.161 24.6028 209.924 24.2594 212.763C23.9794 216.663 24.4994 221.323 26.1094 221.553C27.7194 221.783 27.6694 220.133 27.4394 217.783C27.2094 215.433 26.9994 209.233 30.1294 204.783C30.1294 204.783 29.0094 211.323 30.1294 215.503C31.2494 219.683 33.4094 222.663 34.6094 222.153C35.8094 221.643 35.7494 220.843 34.4494 217.633C33.4494 215.143 33.4494 211.983 33.7494 209.303C33.8119 206.861 34.7816 204.53 36.4694 202.763C37.1009 202.081 37.896 201.572 38.7794 201.283C39.2774 201.22 39.7831 201.268 40.2603 201.424C40.7375 201.579 41.1744 201.839 41.5394 202.183C42.8889 203.431 43.7503 205.118 43.9694 206.943C44.2494 209.043 47.7194 209.233 46.4294 203.333C45.1394 197.433 37.8694 196.393 39.6894 191.573L33.1694 191.673Z" fill="#181818"/>
<path d="M184.219 169.583L186.989 164.223C182.689 161.983 187.609 155.393 185.119 149.883C182.629 144.373 179.969 146.593 180.989 148.443C181.484 149.217 181.817 150.082 181.97 150.988C182.123 151.893 182.092 152.82 181.879 153.713C181.459 155.183 180.509 156.043 179.499 155.173C178.489 154.303 177.839 151.443 174.129 148.293C171.93 146.276 169.107 145.069 166.129 144.873C163.229 144.873 164.249 146.873 165.639 147.443C171.639 149.843 172.379 151.183 173.879 153.143C175.379 155.103 175.189 156.223 174.409 155.993C173.629 155.763 172.409 154.063 168.789 152.383C165.169 150.703 161.079 150.713 160.449 151.483C159.819 152.253 159.889 153.243 161.629 153.653C164.189 154.188 166.676 155.024 169.039 156.143C171.589 157.613 172.749 159.513 172.329 160.063C171.909 160.613 169.729 159.063 166.409 158.463C163.089 157.863 161.409 157.853 160.009 158.393C159.009 158.783 159.359 160.833 162.399 160.983C165.486 161.238 168.471 162.207 171.119 163.813C172.703 164.96 174.398 165.945 176.179 166.753C178.805 167.845 181.489 168.789 184.219 169.583Z" fill="#181818"/>
<path d="M84.9286 88.6239C88.4386 90.4639 94.0686 100.044 87.1686 110.234C84.9707 113.703 81.7732 116.425 77.9977 118.04C74.2221 119.656 70.0456 120.089 66.0186 119.284C63.2186 117.924 48.5586 111.564 47.8386 91.2839C47.1186 71.0039 59.5486 63.2839 62.7086 61.4539C65.8686 59.6239 72.0486 59.1239 71.2786 66.0639C70.5086 73.0039 69.7786 79.1639 74.8186 83.6239C78.7786 87.1539 84.9286 88.6239 84.9286 88.6239Z" fill="#B68C5A"/>
<path opacity="0.75" d="M84.9286 88.6239C88.4386 90.4639 94.0686 100.044 87.1686 110.234C84.9707 113.703 81.7732 116.425 77.9977 118.04C74.2221 119.656 70.0456 120.089 66.0186 119.284C63.2186 117.924 48.5586 111.564 47.8386 91.2839C47.1186 71.0039 59.5486 63.2839 62.7086 61.4539C65.8686 59.6239 72.0486 59.1239 71.2786 66.0639C70.5086 73.0039 69.7786 79.1639 74.8186 83.6239C78.7786 87.1539 84.9286 88.6239 84.9286 88.6239Z" fill="white"/>
<path d="M58.6793 114.973C58.1885 114.975 57.6979 114.951 57.2093 114.903C57.0491 114.886 56.9023 114.805 56.8011 114.68C56.6999 114.554 56.6525 114.394 56.6693 114.233C56.687 114.073 56.7673 113.926 56.8929 113.825C57.0185 113.724 57.179 113.676 57.3393 113.693C60.3393 114.023 69.6793 113.343 76.1093 106.333C82.6793 99.1632 82.9493 92.1732 82.0093 87.5732C81.9933 87.4957 81.9927 87.4158 82.0077 87.3381C82.0227 87.2604 82.0529 87.1864 82.0966 87.1204C82.1403 87.0544 82.1966 86.9977 82.2623 86.9536C82.328 86.9094 82.4017 86.8787 82.4793 86.8632C82.6371 86.8306 82.8013 86.8617 82.9362 86.9498C83.0711 87.0378 83.1657 87.1757 83.1993 87.3332C84.1993 92.2032 83.9193 99.6032 76.9993 107.153C71.0693 113.623 62.7893 114.973 58.6793 114.973Z" fill="#B68C5A"/>
<path d="M54.9594 101.593C52.7368 101.604 50.5188 101.39 48.3394 100.953C48.2619 100.936 48.1885 100.904 48.1235 100.859C48.0584 100.813 48.003 100.756 47.9603 100.689C47.9176 100.622 47.8884 100.547 47.8745 100.469C47.8607 100.391 47.8623 100.311 47.8794 100.233C47.8965 100.156 47.9286 100.083 47.974 100.018C48.0195 99.9525 48.0773 99.897 48.1441 99.8543C48.211 99.8116 48.2856 99.7824 48.3637 99.7686C48.4418 99.7547 48.5219 99.7563 48.5994 99.7734C49.0594 99.8734 59.9394 102.233 67.7294 97.0034C74.7894 92.2734 75.4094 86.5634 75.6694 84.1234C75.687 83.9631 75.7674 83.8163 75.8929 83.7151C76.0185 83.6139 76.179 83.5666 76.3394 83.5834C76.4189 83.5907 76.4961 83.6142 76.5664 83.6522C76.6366 83.6903 76.6984 83.7422 76.7479 83.8049C76.7975 83.8675 76.8338 83.9396 76.8547 84.0167C76.8755 84.0938 76.8806 84.1743 76.8694 84.2534C76.6194 86.6334 75.9394 92.9634 68.4094 98.0134C64.1194 100.893 58.9694 101.593 54.9594 101.593Z" fill="#B68C5A"/>
<path d="M57.8593 85.4539C54.2008 85.5603 50.5915 84.5902 47.4793 82.6639C47.4088 82.6228 47.3475 82.5678 47.299 82.5021C47.2505 82.4365 47.216 82.3617 47.1974 82.2823C47.1788 82.2028 47.1766 82.1204 47.191 82.0401C47.2054 81.9598 47.2359 81.8832 47.2809 81.8152C47.3258 81.7471 47.3842 81.6888 47.4524 81.6441C47.5206 81.5993 47.5972 81.5689 47.6775 81.5548C47.7579 81.5406 47.8403 81.543 47.9197 81.5617C47.9991 81.5805 48.0738 81.6153 48.1393 81.6639C50.1393 82.9839 54.6193 85.0339 61.8493 83.9339C67.5593 83.0639 70.0393 81.2239 71.8493 79.3739C71.9051 79.3175 71.9715 79.2725 72.0447 79.2417C72.1179 79.2109 72.1964 79.1948 72.2758 79.1943C72.3552 79.1939 72.4339 79.2091 72.5074 79.239C72.5809 79.269 72.6479 79.3131 72.7043 79.3689C72.7608 79.4247 72.8057 79.4911 72.8365 79.5643C72.8673 79.6375 72.8834 79.716 72.8839 79.7954C72.8844 79.8748 72.8692 79.9535 72.8392 80.027C72.8093 80.1005 72.7651 80.1674 72.7093 80.2239C70.7093 82.2239 68.0893 84.2239 62.0293 85.1339C60.6494 85.3457 59.2554 85.4527 57.8593 85.4539Z" fill="#B68C5A"/>
<path d="M64.2298 73.7534C62.9939 73.7475 61.7638 73.5828 60.5698 73.2634C59.0963 72.9398 57.7119 72.2965 56.5144 71.3789C55.3169 70.4614 54.3356 69.292 53.6398 67.9534C53.6036 67.8818 53.5819 67.8038 53.5759 67.7239C53.5699 67.6439 53.5797 67.5636 53.6048 67.4874C53.6299 67.4112 53.6697 67.3408 53.7221 67.28C53.7744 67.2193 53.8382 67.1695 53.9098 67.1334C53.9806 67.0974 54.0579 67.0759 54.1371 67.07C54.2163 67.0641 54.2959 67.074 54.3712 67.0991C54.4466 67.1243 54.5162 67.1641 54.576 67.2163C54.6359 67.2685 54.6847 67.3321 54.7198 67.4034C55.3319 68.5931 56.2015 69.6314 57.2653 70.4427C58.3292 71.254 59.5606 71.8179 60.8698 72.0934C62.5531 72.5663 64.3191 72.6681 66.0456 72.3919C67.7721 72.1157 69.4181 71.4679 70.8698 70.4934C70.9354 70.4472 71.0097 70.4149 71.0882 70.3985C71.1668 70.382 71.2478 70.3817 71.3264 70.3976C71.405 70.4135 71.4796 70.4453 71.5455 70.491C71.6114 70.5367 71.6673 70.5954 71.7098 70.6634C71.7546 70.7294 71.7858 70.8038 71.8015 70.882C71.8172 70.9603 71.8171 71.0409 71.8013 71.1191C71.7854 71.1973 71.7542 71.2716 71.7093 71.3376C71.6644 71.4036 71.6068 71.4599 71.5398 71.5034C69.3802 72.9616 66.8357 73.7448 64.2298 73.7534Z" fill="#B68C5A"/>
<path opacity="0.1" d="M73.9285 112.053C69.5085 111.643 63.9285 110.393 59.1785 103.053C54.4285 95.7131 52.8985 80.4031 57.2685 71.1831C60.1485 65.1131 65.8985 59.5531 70.0485 61.4131C68.1985 59.6831 64.7785 60.3031 62.7085 61.4931C59.5885 63.2931 47.1185 71.0431 47.8385 91.3131C48.5585 111.583 63.2185 117.933 66.0185 119.313C70.0455 120.119 74.222 119.685 77.9976 118.069C81.7731 116.454 84.9706 113.732 87.1685 110.263C91.7885 103.443 90.7885 96.8931 88.5785 92.7531C92.0385 103.593 80.5485 112.653 73.9285 112.053Z" fill="#181818"/>
<path d="M83.0091 109.953C83.0091 109.953 77.7891 115.703 77.7491 121.223C77.7182 121.933 77.8312 122.641 78.0813 123.305C78.3314 123.97 78.7135 124.577 79.2046 125.09C79.6956 125.603 80.2854 126.011 80.9384 126.29C81.5914 126.569 82.2941 126.712 83.0041 126.712C83.7142 126.712 84.4169 126.569 85.0699 126.29C85.7229 126.011 86.3127 125.603 86.8037 125.09C87.2948 124.577 87.6768 123.97 87.927 123.305C88.1771 122.641 88.2901 121.933 88.2591 121.223C88.2191 115.703 83.0091 109.953 83.0091 109.953Z" fill="#FAFAFA"/>
<path d="M261.549 18.143L197.089 55.333C196.734 55.5616 196.439 55.8712 196.227 56.2362C196.014 56.6013 195.892 57.0114 195.869 57.433V97.973C195.893 98.393 196.016 98.8014 196.228 99.1647C196.44 99.528 196.735 99.8359 197.089 100.063L201.439 102.493C201.816 102.683 202.232 102.782 202.654 102.782C203.076 102.782 203.492 102.683 203.869 102.493L268.359 65.313C268.711 65.082 269.004 64.7717 269.214 64.4069C269.424 64.0422 269.546 63.6333 269.569 63.213V22.663C269.546 22.2429 269.423 21.8345 269.211 21.4712C268.998 21.1079 268.703 20.8 268.349 20.573L263.999 18.133C263.618 17.9436 263.198 17.8459 262.773 17.8477C262.348 17.8494 261.928 17.9505 261.549 18.143Z" fill="#B68C5A"/>
<path d="M202.66 101.783V61.2434C202.683 60.8231 202.805 60.4141 203.015 60.0494C203.225 59.6847 203.518 59.3743 203.87 59.1434L268.36 21.9634C269.03 21.5734 269.57 21.8934 269.57 22.6634V63.2034C269.547 63.6237 269.425 64.0326 269.215 64.3974C269.005 64.7621 268.712 65.0724 268.36 65.3034L203.87 102.453C203.2 102.873 202.66 102.553 202.66 101.783Z" fill="#B68C5A"/>
<path opacity="0.2" d="M203.869 102.453C203.493 102.645 203.077 102.745 202.654 102.745C202.232 102.745 201.815 102.645 201.439 102.453L197.089 100.003C196.735 99.7786 196.439 99.4728 196.227 99.111C196.014 98.7491 195.892 98.3418 195.869 97.9229V57.4529C195.885 57.0119 196.019 56.5834 196.259 56.2129L203.019 60.0729C202.794 60.43 202.67 60.8411 202.659 61.2629V101.803C202.659 102.453 203.159 102.903 203.869 102.453Z" fill="#181818"/>
<path opacity="0.4" d="M269.55 22.4527C269.46 21.8427 268.96 21.6227 268.35 21.9727L203.88 59.1527C203.521 59.3788 203.226 59.6918 203.02 60.0627L196.25 56.2027C196.452 55.8491 196.741 55.5531 197.09 55.3427L261.55 18.1427C261.928 17.9551 262.343 17.8574 262.765 17.8574C263.187 17.8574 263.602 17.9551 263.98 18.1427L268.33 20.5827C268.656 20.7879 268.934 21.0612 269.145 21.384C269.355 21.7068 269.494 22.0714 269.55 22.4527Z" fill="white"/>
<path d="M195.87 71.833L186.11 81.763C185.998 81.877 185.913 82.0144 185.86 82.1653C185.808 82.3162 185.79 82.4768 185.807 82.6356C185.824 82.7943 185.876 82.9473 185.96 83.0835C186.043 83.2196 186.156 83.3356 186.29 83.423C186.49 83.563 193.05 87.313 193.05 87.313L202.66 75.743L195.87 71.833Z" fill="#B68C5A"/>
<path opacity="0.1" d="M195.87 71.833L186.11 81.763C185.998 81.877 185.913 82.0144 185.86 82.1653C185.808 82.3162 185.79 82.4768 185.807 82.6356C185.824 82.7943 185.876 82.9473 185.96 83.0835C186.043 83.2196 186.156 83.3356 186.29 83.423C186.49 83.563 193.05 87.313 193.05 87.313L202.66 75.743L195.87 71.833Z" fill="#181818"/>
<path d="M202.66 75.7432L192.9 85.6732C192.745 85.8345 192.643 86.0402 192.61 86.2618C192.576 86.4834 192.613 86.7098 192.714 86.9098C192.815 87.1098 192.976 87.2734 193.174 87.3779C193.372 87.4824 193.598 87.5227 193.82 87.4932L202.66 86.2132C203.61 86.2132 203.61 75.7432 202.66 75.7432Z" fill="#B68C5A"/>
<path d="M210.549 72.4529C210.593 71.3003 210.75 70.1547 211.019 69.0329C211.288 67.915 211.684 66.8314 212.199 65.8029C212.701 64.7964 213.326 63.8559 214.059 63.0029C214.77 62.1638 215.623 61.4563 216.579 60.9129C217.328 60.4231 218.195 60.1434 219.089 60.1029C219.768 60.0815 220.431 60.3131 220.949 60.7529C221.506 61.2564 221.914 61.9033 222.129 62.6229C222.428 63.5506 222.587 64.5181 222.599 65.4929C222.599 66.3229 222.599 67.2129 222.599 68.1429C222.599 69.0729 222.599 69.9529 222.599 70.7829C222.565 71.9331 222.407 73.0764 222.129 74.1929C221.858 75.3168 221.462 76.4069 220.949 77.4429C220.454 78.4536 219.829 79.3949 219.089 80.2429C218.372 81.0697 217.524 81.7724 216.579 82.3229C215.824 82.8104 214.956 83.0961 214.059 83.1529C213.38 83.1744 212.717 82.9427 212.199 82.5029C211.644 81.9857 211.236 81.3299 211.019 80.6029C210.729 79.6763 210.571 78.7136 210.549 77.7429C210.549 76.9429 210.549 76.0829 210.549 75.1429C210.549 74.2029 210.549 73.3329 210.549 72.4529ZM219.029 72.6929C219.029 72.3329 219.029 71.9329 219.029 71.4829C219.029 71.0329 219.029 70.5929 219.029 70.1329C219.029 69.6729 219.029 69.2429 219.029 68.8229C219.029 68.4029 219.029 68.0329 219.029 67.7029C219.017 67.2793 218.949 66.8591 218.829 66.4529C218.746 66.1435 218.584 65.861 218.359 65.6329C218.16 65.4421 217.895 65.3347 217.619 65.3329C217.262 65.3516 216.917 65.4656 216.619 65.6629C216.244 65.9011 215.907 66.1944 215.619 66.5329C215.325 66.8876 215.077 67.2772 214.879 67.6929C214.678 68.1288 214.524 68.5846 214.419 69.0529C214.308 69.5395 214.237 70.0346 214.209 70.5329C214.209 70.8829 214.209 71.2729 214.209 71.7029C214.209 72.1329 214.209 72.5829 214.209 73.0329C214.209 73.4829 214.209 73.9329 214.209 74.3729C214.209 74.8129 214.209 75.1929 214.209 75.5329C214.195 76.2814 214.431 77.0133 214.879 77.6129C215.269 78.0429 215.879 78.0229 216.669 77.5629C217.464 77.1101 218.086 76.4068 218.439 75.5629C218.809 74.6569 219.012 73.6914 219.039 72.7129L219.029 72.6929Z" fill="#181818"/>
<path d="M234.729 62.7127C234.729 63.0027 234.729 63.3827 234.729 63.8427C234.729 64.3027 234.729 64.6927 234.729 65.0027C234.697 65.9892 234.552 66.9689 234.299 67.9227C234.044 68.8906 233.689 69.829 233.239 70.7227C232.796 71.5899 232.249 72.3993 231.609 73.1327C231 73.8386 230.276 74.4369 229.469 74.9027C228.828 75.3101 228.096 75.5507 227.339 75.6027C226.747 75.6252 226.166 75.4374 225.699 75.0727C225.214 74.6515 224.848 74.11 224.639 73.5027C224.362 72.719 224.22 71.894 224.219 71.0627C224.219 70.7727 224.219 70.4027 224.219 69.9327C224.219 69.4627 224.219 69.0827 224.219 68.7727C224.237 67.7903 224.371 66.8135 224.619 65.8627C224.876 64.8928 225.238 63.9539 225.699 63.0627C226.143 62.1852 226.694 61.3658 227.339 60.6227C227.944 59.9142 228.664 59.3124 229.469 58.8427C230.112 58.4356 230.849 58.2014 231.609 58.1627C232.201 58.1498 232.78 58.3404 233.249 58.7027C233.741 59.1176 234.108 59.6612 234.309 60.2727C234.576 61.0589 234.718 61.8824 234.729 62.7127ZM227.729 68.9127C227.711 69.1804 227.749 69.4489 227.842 69.7006C227.935 69.9522 228.081 70.1813 228.269 70.3727C228.579 70.6227 228.999 70.5927 229.509 70.2927C230.048 69.9698 230.482 69.4974 230.759 68.9327C231.08 68.2879 231.26 67.5824 231.289 66.8627C231.289 66.5427 231.289 66.2027 231.289 65.8627C231.289 65.5227 231.289 65.1627 231.289 64.8627C231.302 64.5963 231.262 64.3299 231.171 64.0792C231.08 63.8284 230.94 63.5984 230.759 63.4027C230.568 63.2845 230.345 63.2287 230.121 63.243C229.897 63.2573 229.683 63.3411 229.509 63.4827C228.972 63.8062 228.541 64.2787 228.269 64.8427C227.94 65.4887 227.756 66.1984 227.729 66.9227C227.729 67.2327 227.729 67.5727 227.729 67.9227C227.729 68.2727 227.669 68.6327 227.689 68.9127H227.729Z" fill="#181818"/>
<path d="M242.61 67.3231C242.3 67.506 241.962 67.6377 241.61 67.7131C241.37 67.765 241.121 67.765 240.88 67.7131C240.689 67.6622 240.512 67.57 240.36 67.4431C240.23 67.3295 240.113 67.2021 240.01 67.0631V73.3931C240.01 73.6226 239.955 73.8487 239.85 74.0531C239.775 74.2337 239.65 74.3896 239.49 74.5031L237.05 75.9031C237 75.9454 236.936 75.9686 236.87 75.9686C236.805 75.9686 236.741 75.9454 236.69 75.9031C236.631 75.8388 236.587 75.7628 236.559 75.6801C236.532 75.5974 236.522 75.5098 236.53 75.4231V55.8631C236.53 55.6366 236.585 55.4135 236.69 55.2131C236.76 55.0291 236.886 54.8717 237.05 54.7631L239.4 53.4531C239.45 53.406 239.517 53.3797 239.585 53.3797C239.654 53.3797 239.72 53.406 239.77 53.4531C239.882 53.587 239.936 53.7595 239.92 53.9331V54.6131L240.3 53.7731C240.436 53.4663 240.604 53.1746 240.8 52.9031C241.02 52.6037 241.265 52.3228 241.53 52.0631C241.857 51.76 242.22 51.498 242.61 51.2831C243.105 50.9713 243.668 50.7827 244.25 50.7331C244.496 50.7157 244.742 50.7483 244.974 50.8291C245.206 50.91 245.419 51.0372 245.6 51.2031C246.046 51.6386 246.37 52.1834 246.54 52.7831C246.808 53.6953 246.94 54.6423 246.93 55.5931C246.93 55.8831 246.93 56.2831 246.93 56.7831C246.93 57.2831 246.93 57.6931 246.93 58.0031C246.921 59.1008 246.79 60.194 246.54 61.2631C246.326 62.1849 246.011 63.0803 245.6 63.9331C245.245 64.6591 244.791 65.3323 244.25 65.9331C243.78 66.4796 243.227 66.9487 242.61 67.3231ZM243.48 59.6231C243.52 59.0671 243.52 58.509 243.48 57.9531C243.478 57.4045 243.322 56.8676 243.03 56.4031C242.77 56.0297 242.34 56.0297 241.74 56.4031C241.455 56.5622 241.203 56.7763 241 57.0331C240.798 57.2956 240.627 57.5809 240.49 57.8831C240.358 58.1872 240.251 58.5016 240.17 58.8231C240.094 59.152 240.044 59.4863 240.02 59.8231C240.02 60.1331 240.02 60.4931 240.02 60.8831C240.004 61.2162 240.004 61.5499 240.02 61.8831C240.042 62.1477 240.093 62.4092 240.17 62.6631C240.24 62.8717 240.348 63.0651 240.49 63.2331C240.623 63.3775 240.805 63.4668 241 63.4831C241.262 63.4887 241.52 63.4155 241.74 63.2731C242.331 62.9283 242.786 62.392 243.03 61.7531C243.295 61.0721 243.447 60.3528 243.48 59.6231Z" fill="#181818"/>
<path d="M254.47 55.533C254.47 55.313 254.42 55.173 254.32 55.113C254.163 55.049 253.987 55.049 253.83 55.113C253.518 55.1898 253.21 55.2866 252.91 55.4029C252.53 55.5429 252.06 55.693 251.49 55.863C251.118 56.0242 250.708 56.076 250.308 56.0122C249.907 55.9485 249.534 55.7718 249.23 55.503C248.615 54.7029 248.332 53.6964 248.44 52.6929C248.445 51.9902 248.556 51.2922 248.77 50.6229C248.996 49.9221 249.305 49.2507 249.69 48.6229C250.086 47.9508 250.563 47.3296 251.11 46.7729C251.658 46.2108 252.281 45.7262 252.96 45.3329C253.526 44.9836 254.154 44.746 254.81 44.6329C255.302 44.5468 255.807 44.5846 256.28 44.743C256.693 44.8752 257.047 45.1476 257.28 45.5129C257.524 45.8927 257.659 46.3319 257.67 46.783C257.686 47.0085 257.637 47.2338 257.53 47.433C257.45 47.6192 257.318 47.7788 257.15 47.893L254.85 49.213C254.71 49.303 254.6 49.3129 254.52 49.2629L254.22 49.113C254.075 49.0502 253.917 49.026 253.76 49.0429C253.48 49.0865 253.214 49.1925 252.98 49.353C252.696 49.5096 252.444 49.7202 252.24 49.9729C252.046 50.1978 251.939 50.4856 251.94 50.783C251.926 50.9385 251.957 51.095 252.03 51.2329C252.097 51.3129 252.227 51.3329 252.42 51.2929C252.696 51.2288 252.966 51.1453 253.23 51.0429L254.6 50.5829C255.77 50.2029 256.6 50.323 257.16 50.933C257.745 51.7062 258.03 52.6657 257.96 53.6329C257.954 54.3381 257.847 55.0387 257.64 55.713C257.395 56.4548 257.059 57.1635 256.64 57.823C256.206 58.5499 255.686 59.2215 255.09 59.823C254.474 60.4357 253.782 60.9667 253.03 61.4029C252.419 61.7844 251.74 62.0458 251.03 62.173C250.531 62.2525 250.019 62.1937 249.55 62.003C249.165 61.8235 248.844 61.5304 248.63 61.1629C248.415 60.7802 248.295 60.3516 248.28 59.9129C248.265 59.6874 248.313 59.4621 248.42 59.2629C248.503 59.0783 248.635 58.9195 248.8 58.8029L251.19 57.423C251.34 57.343 251.44 57.333 251.5 57.423C251.577 57.5002 251.661 57.5705 251.75 57.6329C251.888 57.7081 252.044 57.7428 252.2 57.7329C252.512 57.6854 252.809 57.5693 253.07 57.393C253.446 57.1757 253.783 56.8987 254.07 56.573C254.336 56.2928 254.48 55.9189 254.47 55.533Z" fill="#181818"/>
<path d="M263.181 47.9529C263.179 48.1791 263.124 48.4017 263.021 48.6029C262.951 48.7869 262.825 48.9443 262.661 49.0529L260.221 50.4529C260.172 50.4994 260.108 50.5253 260.041 50.5253C259.973 50.5253 259.909 50.4994 259.861 50.4529C259.802 50.3887 259.757 50.3127 259.729 50.23C259.702 50.1473 259.692 50.0597 259.701 49.9729V37.1429C259.701 36.9134 259.756 36.6873 259.861 36.4829C259.931 36.2989 260.056 36.1415 260.221 36.0329L262.661 34.6329C262.709 34.5865 262.774 34.5605 262.841 34.5605C262.908 34.5605 262.972 34.5865 263.021 34.6329C263.08 34.6972 263.124 34.7732 263.152 34.8559C263.179 34.9386 263.189 35.0262 263.181 35.1129V47.9529ZM263.181 54.3429C263.181 54.5694 263.126 54.7925 263.021 54.9929C262.951 55.1769 262.825 55.3343 262.661 55.4429L260.221 56.8529C260.171 56.8972 260.107 56.9217 260.041 56.9217C259.974 56.9217 259.91 56.8972 259.861 56.8529C259.801 56.7909 259.756 56.7167 259.729 56.6356C259.701 56.5544 259.691 56.4682 259.701 56.3829V53.3829C259.702 53.1567 259.757 52.9341 259.861 52.7329C259.931 52.5489 260.056 52.3915 260.221 52.2829L262.661 50.8729C262.71 50.8286 262.774 50.8042 262.841 50.8042C262.907 50.8042 262.971 50.8286 263.021 50.8729C263.08 50.9372 263.124 51.0132 263.152 51.0959C263.179 51.1786 263.189 51.2662 263.181 51.3529V54.3429Z" fill="#181818"/>
</svg>
