<svg width="113" height="91" viewBox="0 0 113 91" fill="none" xmlns="http://www.w3.org/2000/svg">
<path d="M101.282 90.3215C103.195 91.4261 105.654 90.7753 106.632 88.7942C113.189 75.5035 114.725 60.2353 110.866 45.8327C106.661 30.1379 96.393 16.7566 82.3214 8.63235C68.2499 0.508147 51.5274 -1.69342 35.8326 2.51198C21.43 6.37115 8.9755 15.3357 0.744095 27.66C-0.482885 29.497 0.183234 31.9522 2.0964 33.0568L19.1776 42.9186C21.0908 44.0232 23.519 43.3498 24.8433 41.5816C29.3265 35.5958 35.7105 31.2464 43.008 29.291C51.6006 26.9886 60.7558 28.1939 68.4596 32.6418C76.1634 37.0896 81.7849 44.4156 84.0872 53.0081C86.0426 60.3056 85.4679 68.009 82.5256 74.8845C81.6565 76.9155 82.2874 79.3551 84.2006 80.4596L101.282 90.3215Z" fill="#B68C5A"/>
</svg>
