<svg width="302" height="143" viewBox="0 0 302 143" fill="none" xmlns="http://www.w3.org/2000/svg">
<g opacity="0.3">
<path d="M302 2.2382V3.73033H300.047V5.96854H298.746V3.73033H296.793V2.2382H298.746V0H300.047V2.2382H302Z" fill="white"/>
<path d="M302 20.1438V21.636H300.047V23.8742H298.746V21.636H296.793V20.1438H298.746V17.9056H300.047V20.1438H302Z" fill="white"/>
<path d="M302 38.0494V39.5415H300.047V41.7797H298.746V39.5415H296.793V38.0494H298.746V35.8112H300.047V38.0494H302Z" fill="white"/>
<path d="M302 55.955V57.4471H300.047V59.6853H298.746V57.4471H296.793V55.955H298.746V53.7168H300.047V55.955H302Z" fill="white"/>
<path d="M302 73.8605V75.3527H300.047V77.5909H298.746V75.3527H296.793V73.8605H298.746V71.6223H300.047V73.8605H302Z" fill="white"/>
<path d="M302 91.7661V93.2583H300.047V95.4965H298.746V93.2583H296.793V91.7661H298.746V89.528H300.047V91.7661H302Z" fill="white"/>
<path d="M302 109.672V111.164H300.047V113.402H298.746V111.164H296.793V109.672H298.746V107.434H300.047V109.672H302Z" fill="white"/>
<path d="M302 127.577V129.069H300.047V131.308H298.746V129.069H296.793V127.577H298.746V125.339H300.047V127.577H302Z" fill="white"/>
<path d="M286.38 2.2382V3.73033H284.427V5.96854H283.125V3.73033H281.173V2.2382H283.125V0H284.427V2.2382H286.38Z" fill="white"/>
<path d="M286.38 20.1438V21.636H284.427V23.8742H283.125V21.636H281.173V20.1438H283.125V17.9056H284.427V20.1438H286.38Z" fill="white"/>
<path d="M286.38 38.0494V39.5415H284.427V41.7797H283.125V39.5415H281.173V38.0494H283.125V35.8112H284.427V38.0494H286.38Z" fill="white"/>
<path d="M286.38 55.955V57.4471H284.427V59.6853H283.125V57.4471H281.173V55.955H283.125V53.7168H284.427V55.955H286.38Z" fill="white"/>
<path d="M286.38 73.8605V75.3527H284.427V77.5909H283.125V75.3527H281.173V73.8605H283.125V71.6223H284.427V73.8605H286.38Z" fill="white"/>
<path d="M286.38 91.7661V93.2583H284.427V95.4965H283.125V93.2583H281.173V91.7661H283.125V89.528H284.427V91.7661H286.38Z" fill="white"/>
<path d="M286.38 109.672V111.164H284.427V113.402H283.125V111.164H281.173V109.672H283.125V107.434H284.427V109.672H286.38Z" fill="white"/>
<path d="M286.38 127.577V129.069H284.427V131.308H283.125V129.069H281.173V127.577H283.125V125.339H284.427V127.577H286.38Z" fill="white"/>
<path d="M270.759 2.2382V3.73033H268.806V5.96854H267.504V3.73033H265.552V2.2382H267.504V0H268.806V2.2382H270.759Z" fill="white"/>
<path d="M270.759 20.1438V21.636H268.806V23.8742H267.504V21.636H265.552V20.1438H267.504V17.9056H268.806V20.1438H270.759Z" fill="white"/>
<path d="M270.759 38.0494V39.5415H268.806V41.7797H267.504V39.5415H265.552V38.0494H267.504V35.8112H268.806V38.0494H270.759Z" fill="white"/>
<path d="M270.759 55.955V57.4471H268.806V59.6853H267.504V57.4471H265.552V55.955H267.504V53.7168H268.806V55.955H270.759Z" fill="white"/>
<path d="M270.759 73.8605V75.3527H268.806V77.5909H267.504V75.3527H265.552V73.8605H267.504V71.6223H268.806V73.8605H270.759Z" fill="white"/>
<path d="M270.759 91.7661V93.2583H268.806V95.4965H267.504V93.2583H265.552V91.7661H267.504V89.528H268.806V91.7661H270.759Z" fill="white"/>
<path d="M270.759 109.672V111.164H268.806V113.402H267.504V111.164H265.552V109.672H267.504V107.434H268.806V109.672H270.759Z" fill="white"/>
<path d="M270.759 127.577V129.069H268.806V131.308H267.504V129.069H265.552V127.577H267.504V125.339H268.806V127.577H270.759Z" fill="white"/>
<path d="M255.139 2.2382V3.73033H253.186V5.96854H251.884V3.73033H249.932V2.2382H251.884V0H253.186V2.2382H255.139Z" fill="white"/>
<path d="M255.139 20.1438V21.636H253.186V23.8742H251.884V21.636H249.932V20.1438H251.884V17.9056H253.186V20.1438H255.139Z" fill="white"/>
<path d="M255.139 38.0494V39.5415H253.186V41.7797H251.884V39.5415H249.932V38.0494H251.884V35.8112H253.186V38.0494H255.139Z" fill="white"/>
<path d="M255.139 55.955V57.4471H253.186V59.6853H251.884V57.4471H249.932V55.955H251.884V53.7168H253.186V55.955H255.139Z" fill="white"/>
<path d="M255.139 73.8605V75.3527H253.186V77.5909H251.884V75.3527H249.932V73.8605H251.884V71.6223H253.186V73.8605H255.139Z" fill="white"/>
<path d="M255.139 91.7661V93.2583H253.186V95.4965H251.884V93.2583H249.932V91.7661H251.884V89.528H253.186V91.7661H255.139Z" fill="white"/>
<path d="M255.139 109.672V111.164H253.186V113.402H251.884V111.164H249.932V109.672H251.884V107.434H253.186V109.672H255.139Z" fill="white"/>
<path d="M255.139 127.577V129.069H253.186V131.308H251.884V129.069H249.932V127.577H251.884V125.339H253.186V127.577H255.139Z" fill="white"/>
<path d="M239.518 2.2382V3.73033H237.565V5.96854H236.263V3.73033H234.311V2.2382H236.263V0H237.565V2.2382H239.518Z" fill="white"/>
<path d="M239.518 20.1438V21.636H237.565V23.8742H236.263V21.636H234.311V20.1438H236.263V17.9056H237.565V20.1438H239.518Z" fill="white"/>
<path d="M239.518 38.0494V39.5415H237.565V41.7797H236.263V39.5415H234.311V38.0494H236.263V35.8112H237.565V38.0494H239.518Z" fill="white"/>
<path d="M239.518 55.955V57.4471H237.565V59.6853H236.263V57.4471H234.311V55.955H236.263V53.7168H237.565V55.955H239.518Z" fill="white"/>
<path d="M239.518 73.8605V75.3527H237.565V77.5909H236.263V75.3527H234.311V73.8605H236.263V71.6223H237.565V73.8605H239.518Z" fill="white"/>
<path d="M239.518 91.7661V93.2583H237.565V95.4965H236.263V93.2583H234.311V91.7661H236.263V89.528H237.565V91.7661H239.518Z" fill="white"/>
<path d="M239.518 109.672V111.164H237.565V113.402H236.263V111.164H234.311V109.672H236.263V107.434H237.565V109.672H239.518Z" fill="white"/>
<path d="M239.518 127.577V129.069H237.565V131.308H236.263V129.069H234.311V127.577H236.263V125.339H237.565V127.577H239.518Z" fill="white"/>
<path d="M223.896 2.2382V3.73033H221.944V5.96854H220.642V3.73033H218.689V2.2382H220.642V0H221.944V2.2382H223.896Z" fill="white"/>
<path d="M223.896 20.1438V21.636H221.944V23.8742H220.642V21.636H218.689V20.1438H220.642V17.9056H221.944V20.1438H223.896Z" fill="white"/>
<path d="M223.896 38.0494V39.5415H221.944V41.7797H220.642V39.5415H218.689V38.0494H220.642V35.8112H221.944V38.0494H223.896Z" fill="white"/>
<path d="M223.896 55.955V57.4471H221.944V59.6853H220.642V57.4471H218.689V55.955H220.642V53.7168H221.944V55.955H223.896Z" fill="white"/>
<path d="M223.896 73.8605V75.3527H221.944V77.5909H220.642V75.3527H218.689V73.8605H220.642V71.6223H221.944V73.8605H223.896Z" fill="white"/>
<path d="M223.896 91.7661V93.2583H221.944V95.4965H220.642V93.2583H218.689V91.7661H220.642V89.528H221.944V91.7661H223.896Z" fill="white"/>
<path d="M223.896 109.672V111.164H221.944V113.402H220.642V111.164H218.689V109.672H220.642V107.434H221.944V109.672H223.896Z" fill="white"/>
<path d="M223.896 127.577V129.069H221.944V131.308H220.642V129.069H218.689V127.577H220.642V125.339H221.944V127.577H223.896Z" fill="white"/>
<path d="M208.276 2.2382V3.73033H206.324V5.96854H205.022V3.73033H203.069V2.2382H205.022V0H206.324V2.2382H208.276Z" fill="white"/>
<path d="M208.276 20.1438V21.636H206.324V23.8742H205.022V21.636H203.069V20.1438H205.022V17.9056H206.324V20.1438H208.276Z" fill="white"/>
<path d="M208.276 38.0494V39.5415H206.324V41.7797H205.022V39.5415H203.069V38.0494H205.022V35.8112H206.324V38.0494H208.276Z" fill="white"/>
<path d="M208.276 55.955V57.4471H206.324V59.6853H205.022V57.4471H203.069V55.955H205.022V53.7168H206.324V55.955H208.276Z" fill="white"/>
<path d="M208.276 73.8605V75.3527H206.324V77.5909H205.022V75.3527H203.069V73.8605H205.022V71.6223H206.324V73.8605H208.276Z" fill="white"/>
<path d="M208.276 91.7661V93.2583H206.324V95.4965H205.022V93.2583H203.069V91.7661H205.022V89.528H206.324V91.7661H208.276Z" fill="white"/>
<path d="M208.276 109.672V111.164H206.324V113.402H205.022V111.164H203.069V109.672H205.022V107.434H206.324V109.672H208.276Z" fill="white"/>
<path d="M208.276 127.577V129.069H206.324V131.308H205.022V129.069H203.069V127.577H205.022V125.339H206.324V127.577H208.276Z" fill="white"/>
<path d="M192.655 2.2382V3.73033H190.703V5.96854H189.401V3.73033H187.448V2.2382H189.401V0H190.703V2.2382H192.655Z" fill="white"/>
<path d="M192.655 20.1438V21.636H190.703V23.8742H189.401V21.636H187.448V20.1438H189.401V17.9056H190.703V20.1438H192.655Z" fill="white"/>
<path d="M192.655 38.0494V39.5415H190.703V41.7797H189.401V39.5415H187.448V38.0494H189.401V35.8112H190.703V38.0494H192.655Z" fill="white"/>
<path d="M192.655 55.955V57.4471H190.703V59.6853H189.401V57.4471H187.448V55.955H189.401V53.7168H190.703V55.955H192.655Z" fill="white"/>
<path d="M192.655 73.8605V75.3527H190.703V77.5909H189.401V75.3527H187.448V73.8605H189.401V71.6223H190.703V73.8605H192.655Z" fill="white"/>
<path d="M192.655 91.7661V93.2583H190.703V95.4965H189.401V93.2583H187.448V91.7661H189.401V89.528H190.703V91.7661H192.655Z" fill="white"/>
<path d="M192.655 109.672V111.164H190.703V113.402H189.401V111.164H187.448V109.672H189.401V107.434H190.703V109.672H192.655Z" fill="white"/>
<path d="M192.655 127.577V129.069H190.703V131.308H189.401V129.069H187.448V127.577H189.401V125.339H190.703V127.577H192.655Z" fill="white"/>
<path d="M177.035 2.2382V3.73033H175.082V5.96854H173.781V3.73033H171.828V2.2382H173.781V0H175.082V2.2382H177.035Z" fill="white"/>
<path d="M177.035 20.1438V21.636H175.082V23.8742H173.781V21.636H171.828V20.1438H173.781V17.9056H175.082V20.1438H177.035Z" fill="white"/>
<path d="M177.035 38.0494V39.5415H175.082V41.7797H173.781V39.5415H171.828V38.0494H173.781V35.8112H175.082V38.0494H177.035Z" fill="white"/>
<path d="M177.035 55.955V57.4471H175.082V59.6853H173.781V57.4471H171.828V55.955H173.781V53.7168H175.082V55.955H177.035Z" fill="white"/>
<path d="M177.035 73.8605V75.3527H175.082V77.5909H173.781V75.3527H171.828V73.8605H173.781V71.6223H175.082V73.8605H177.035Z" fill="white"/>
<path d="M177.035 91.7661V93.2583H175.082V95.4965H173.781V93.2583H171.828V91.7661H173.781V89.528H175.082V91.7661H177.035Z" fill="white"/>
<path d="M177.035 109.672V111.164H175.082V113.402H173.781V111.164H171.828V109.672H173.781V107.434H175.082V109.672H177.035Z" fill="white"/>
<path d="M177.035 127.577V129.069H175.082V131.308H173.781V129.069H171.828V127.577H173.781V125.339H175.082V127.577H177.035Z" fill="white"/>
<path d="M161.414 2.2382V3.73033H159.461V5.96854H158.16V3.73033H156.207V2.2382H158.16V0H159.461V2.2382H161.414Z" fill="white"/>
<path d="M161.414 20.1438V21.636H159.461V23.8742H158.16V21.636H156.207V20.1438H158.16V17.9056H159.461V20.1438H161.414Z" fill="white"/>
<path d="M161.414 38.0494V39.5415H159.461V41.7797H158.16V39.5415H156.207V38.0494H158.16V35.8112H159.461V38.0494H161.414Z" fill="white"/>
<path d="M161.414 55.955V57.4471H159.461V59.6853H158.16V57.4471H156.207V55.955H158.16V53.7168H159.461V55.955H161.414Z" fill="white"/>
<path d="M161.414 73.8605V75.3527H159.461V77.5909H158.16V75.3527H156.207V73.8605H158.16V71.6223H159.461V73.8605H161.414Z" fill="white"/>
<path d="M161.414 91.7661V93.2583H159.461V95.4965H158.16V93.2583H156.207V91.7661H158.16V89.528H159.461V91.7661H161.414Z" fill="white"/>
<path d="M161.414 109.672V111.164H159.461V113.402H158.16V111.164H156.207V109.672H158.16V107.434H159.461V109.672H161.414Z" fill="white"/>
<path d="M161.414 127.577V129.069H159.461V131.308H158.16V129.069H156.207V127.577H158.16V125.339H159.461V127.577H161.414Z" fill="white"/>
<path d="M145.793 2.2382V3.73033H143.84V5.96854H142.539V3.73033H140.586V2.2382H142.539V0H143.84V2.2382H145.793Z" fill="white"/>
<path d="M145.793 20.1438V21.636H143.84V23.8742H142.539V21.636H140.586V20.1438H142.539V17.9056H143.84V20.1438H145.793Z" fill="white"/>
<path d="M145.793 38.0494V39.5415H143.84V41.7797H142.539V39.5415H140.586V38.0494H142.539V35.8112H143.84V38.0494H145.793Z" fill="white"/>
<path d="M145.793 55.955V57.4471H143.84V59.6853H142.539V57.4471H140.586V55.955H142.539V53.7168H143.84V55.955H145.793Z" fill="white"/>
<path d="M145.793 73.8605V75.3527H143.84V77.5909H142.539V75.3527H140.586V73.8605H142.539V71.6223H143.84V73.8605H145.793Z" fill="white"/>
<path d="M145.793 91.7661V93.2583H143.84V95.4965H142.539V93.2583H140.586V91.7661H142.539V89.528H143.84V91.7661H145.793Z" fill="white"/>
<path d="M145.793 109.672V111.164H143.84V113.402H142.539V111.164H140.586V109.672H142.539V107.434H143.84V109.672H145.793Z" fill="white"/>
<path d="M145.793 127.577V129.069H143.84V131.308H142.539V129.069H140.586V127.577H142.539V125.339H143.84V127.577H145.793Z" fill="white"/>
<path d="M130.173 2.2382V3.73033H128.22V5.96854H126.918V3.73033H124.966V2.2382H126.918V0H128.22V2.2382H130.173Z" fill="white"/>
<path d="M130.173 20.1438V21.636H128.22V23.8742H126.918V21.636H124.966V20.1438H126.918V17.9056H128.22V20.1438H130.173Z" fill="white"/>
<path d="M130.173 38.0494V39.5415H128.22V41.7797H126.918V39.5415H124.966V38.0494H126.918V35.8112H128.22V38.0494H130.173Z" fill="white"/>
<path d="M130.173 55.955V57.4471H128.22V59.6853H126.918V57.4471H124.966V55.955H126.918V53.7168H128.22V55.955H130.173Z" fill="white"/>
<path d="M130.173 73.8605V75.3527H128.22V77.5909H126.918V75.3527H124.966V73.8605H126.918V71.6223H128.22V73.8605H130.173Z" fill="white"/>
<path d="M130.173 91.7661V93.2583H128.22V95.4965H126.918V93.2583H124.966V91.7661H126.918V89.528H128.22V91.7661H130.173Z" fill="white"/>
<path d="M130.173 109.672V111.164H128.22V113.402H126.918V111.164H124.966V109.672H126.918V107.434H128.22V109.672H130.173Z" fill="white"/>
<path d="M130.173 127.577V129.069H128.22V131.308H126.918V129.069H124.966V127.577H126.918V125.339H128.22V127.577H130.173Z" fill="white"/>
<path d="M114.552 2.2382V3.73033H112.599V5.96854H111.297V3.73033H109.345V2.2382H111.297V0H112.599V2.2382H114.552Z" fill="white"/>
<path d="M114.552 20.1438V21.636H112.599V23.8742H111.297V21.636H109.345V20.1438H111.297V17.9056H112.599V20.1438H114.552Z" fill="white"/>
<path d="M114.552 38.0494V39.5415H112.599V41.7797H111.297V39.5415H109.345V38.0494H111.297V35.8112H112.599V38.0494H114.552Z" fill="white"/>
<path d="M114.552 55.955V57.4471H112.599V59.6853H111.297V57.4471H109.345V55.955H111.297V53.7168H112.599V55.955H114.552Z" fill="white"/>
<path d="M114.552 73.8605V75.3527H112.599V77.5909H111.297V75.3527H109.345V73.8605H111.297V71.6223H112.599V73.8605H114.552Z" fill="white"/>
<path d="M114.552 91.7661V93.2583H112.599V95.4965H111.297V93.2583H109.345V91.7661H111.297V89.528H112.599V91.7661H114.552Z" fill="white"/>
<path d="M114.552 109.672V111.164H112.599V113.402H111.297V111.164H109.345V109.672H111.297V107.434H112.599V109.672H114.552Z" fill="white"/>
<path d="M114.552 127.577V129.069H112.599V131.308H111.297V129.069H109.345V127.577H111.297V125.339H112.599V127.577H114.552Z" fill="white"/>
<path d="M98.9305 2.2382V3.73033H96.978V5.96854H95.6762V3.73033H93.7236V2.2382H95.6762V0H96.978V2.2382H98.9305Z" fill="white"/>
<path d="M98.9305 20.1438V21.636H96.978V23.8742H95.6762V21.636H93.7236V20.1438H95.6762V17.9056H96.978V20.1438H98.9305Z" fill="white"/>
<path d="M98.9305 38.0494V39.5415H96.978V41.7797H95.6762V39.5415H93.7236V38.0494H95.6762V35.8112H96.978V38.0494H98.9305Z" fill="white"/>
<path d="M98.9305 55.955V57.4471H96.978V59.6853H95.6762V57.4471H93.7236V55.955H95.6762V53.7168H96.978V55.955H98.9305Z" fill="white"/>
<path d="M98.9305 73.8605V75.3527H96.978V77.5909H95.6762V75.3527H93.7236V73.8605H95.6762V71.6223H96.978V73.8605H98.9305Z" fill="white"/>
<path d="M98.9305 91.7661V93.2583H96.978V95.4965H95.6762V93.2583H93.7236V91.7661H95.6762V89.528H96.978V91.7661H98.9305Z" fill="white"/>
<path d="M98.9305 109.672V111.164H96.978V113.402H95.6762V111.164H93.7236V109.672H95.6762V107.434H96.978V109.672H98.9305Z" fill="white"/>
<path d="M98.9305 127.577V129.069H96.978V131.308H95.6762V129.069H93.7236V127.577H95.6762V125.339H96.978V127.577H98.9305Z" fill="white"/>
<path d="M83.3104 2.2382V3.73033H81.3578V5.96854H80.0561V3.73033H78.1035V2.2382H80.0561V0H81.3578V2.2382H83.3104Z" fill="white"/>
<path d="M83.3104 20.1438V21.636H81.3578V23.8742H80.0561V21.636H78.1035V20.1438H80.0561V17.9056H81.3578V20.1438H83.3104Z" fill="white"/>
<path d="M83.3104 38.0494V39.5415H81.3578V41.7797H80.0561V39.5415H78.1035V38.0494H80.0561V35.8112H81.3578V38.0494H83.3104Z" fill="white"/>
<path d="M83.3104 55.955V57.4471H81.3578V59.6853H80.0561V57.4471H78.1035V55.955H80.0561V53.7168H81.3578V55.955H83.3104Z" fill="white"/>
<path d="M83.3104 73.8605V75.3527H81.3578V77.5909H80.0561V75.3527H78.1035V73.8605H80.0561V71.6223H81.3578V73.8605H83.3104Z" fill="white"/>
<path d="M83.3104 91.7661V93.2583H81.3578V95.4965H80.0561V93.2583H78.1035V91.7661H80.0561V89.528H81.3578V91.7661H83.3104Z" fill="white"/>
<path d="M83.3104 109.672V111.164H81.3578V113.402H80.0561V111.164H78.1035V109.672H80.0561V107.434H81.3578V109.672H83.3104Z" fill="white"/>
<path d="M83.3104 127.577V129.069H81.3578V131.308H80.0561V129.069H78.1035V127.577H80.0561V125.339H81.3578V127.577H83.3104Z" fill="white"/>
<path d="M67.6893 2.2382V3.73033H65.7367V5.96854H64.435V3.73033H62.4824V2.2382H64.435V0H65.7367V2.2382H67.6893Z" fill="white"/>
<path d="M67.6893 20.1438V21.636H65.7367V23.8742H64.435V21.636H62.4824V20.1438H64.435V17.9056H65.7367V20.1438H67.6893Z" fill="white"/>
<path d="M67.6893 38.0494V39.5415H65.7367V41.7797H64.435V39.5415H62.4824V38.0494H64.435V35.8112H65.7367V38.0494H67.6893Z" fill="white"/>
<path d="M67.6893 55.955V57.4471H65.7367V59.6853H64.435V57.4471H62.4824V55.955H64.435V53.7168H65.7367V55.955H67.6893Z" fill="white"/>
<path d="M67.6893 73.8605V75.3527H65.7367V77.5909H64.435V75.3527H62.4824V73.8605H64.435V71.6223H65.7367V73.8605H67.6893Z" fill="white"/>
<path d="M67.6893 91.7661V93.2583H65.7367V95.4965H64.435V93.2583H62.4824V91.7661H64.435V89.528H65.7367V91.7661H67.6893Z" fill="white"/>
<path d="M67.6893 109.672V111.164H65.7367V113.402H64.435V111.164H62.4824V109.672H64.435V107.434H65.7367V109.672H67.6893Z" fill="white"/>
<path d="M67.6893 127.577V129.069H65.7367V131.308H64.435V129.069H62.4824V127.577H64.435V125.339H65.7367V127.577H67.6893Z" fill="white"/>
<path d="M52.0692 2.2382V3.73033H50.1166V5.96854H48.8149V3.73033H46.8623V2.2382H48.8149V0H50.1166V2.2382H52.0692Z" fill="white"/>
<path d="M52.0692 20.1438V21.636H50.1166V23.8742H48.8149V21.636H46.8623V20.1438H48.8149V17.9056H50.1166V20.1438H52.0692Z" fill="white"/>
<path d="M52.0692 38.0494V39.5415H50.1166V41.7797H48.8149V39.5415H46.8623V38.0494H48.8149V35.8112H50.1166V38.0494H52.0692Z" fill="white"/>
<path d="M52.0692 55.955V57.4471H50.1166V59.6853H48.8149V57.4471H46.8623V55.955H48.8149V53.7168H50.1166V55.955H52.0692Z" fill="white"/>
<path d="M52.0692 73.8605V75.3527H50.1166V77.5909H48.8149V75.3527H46.8623V73.8605H48.8149V71.6223H50.1166V73.8605H52.0692Z" fill="white"/>
<path d="M52.0692 91.7661V93.2583H50.1166V95.4965H48.8149V93.2583H46.8623V91.7661H48.8149V89.528H50.1166V91.7661H52.0692Z" fill="white"/>
<path d="M52.0692 109.672V111.164H50.1166V113.402H48.8149V111.164H46.8623V109.672H48.8149V107.434H50.1166V109.672H52.0692Z" fill="white"/>
<path d="M52.0692 127.577V129.069H50.1166V131.308H48.8149V129.069H46.8623V127.577H48.8149V125.339H50.1166V127.577H52.0692Z" fill="white"/>
<path d="M36.4481 2.2382V3.73033H34.4955V5.96854H33.1938V3.73033H31.2412V2.2382H33.1938V0H34.4955V2.2382H36.4481Z" fill="white"/>
<path d="M36.4481 20.1438V21.636H34.4955V23.8742H33.1938V21.636H31.2412V20.1438H33.1938V17.9056H34.4955V20.1438H36.4481Z" fill="white"/>
<path d="M36.4481 38.0494V39.5415H34.4955V41.7797H33.1938V39.5415H31.2412V38.0494H33.1938V35.8112H34.4955V38.0494H36.4481Z" fill="white"/>
<path d="M36.4481 55.955V57.4471H34.4955V59.6853H33.1938V57.4471H31.2412V55.955H33.1938V53.7168H34.4955V55.955H36.4481Z" fill="white"/>
<path d="M36.4481 73.8605V75.3527H34.4955V77.5909H33.1938V75.3527H31.2412V73.8605H33.1938V71.6223H34.4955V73.8605H36.4481Z" fill="white"/>
<path d="M36.4481 91.7661V93.2583H34.4955V95.4965H33.1938V93.2583H31.2412V91.7661H33.1938V89.528H34.4955V91.7661H36.4481Z" fill="white"/>
<path d="M36.4481 109.672V111.164H34.4955V113.402H33.1938V111.164H31.2412V109.672H33.1938V107.434H34.4955V109.672H36.4481Z" fill="white"/>
<path d="M36.4481 127.577V129.069H34.4955V131.308H33.1938V129.069H31.2412V127.577H33.1938V125.339H34.4955V127.577H36.4481Z" fill="white"/>
<path d="M20.828 2.2382V3.73033H18.8754V5.96854H17.5737V3.73033H15.6211V2.2382H17.5737V0H18.8754V2.2382H20.828Z" fill="white"/>
<path d="M20.828 20.1438V21.636H18.8754V23.8742H17.5737V21.636H15.6211V20.1438H17.5737V17.9056H18.8754V20.1438H20.828Z" fill="white"/>
<path d="M20.828 38.0494V39.5415H18.8754V41.7797H17.5737V39.5415H15.6211V38.0494H17.5737V35.8112H18.8754V38.0494H20.828Z" fill="white"/>
<path d="M20.828 55.955V57.4471H18.8754V59.6853H17.5737V57.4471H15.6211V55.955H17.5737V53.7168H18.8754V55.955H20.828Z" fill="white"/>
<path d="M20.828 73.8605V75.3527H18.8754V77.5909H17.5737V75.3527H15.6211V73.8605H17.5737V71.6223H18.8754V73.8605H20.828Z" fill="white"/>
<path d="M20.828 91.7661V93.2583H18.8754V95.4965H17.5737V93.2583H15.6211V91.7661H17.5737V89.528H18.8754V91.7661H20.828Z" fill="white"/>
<path d="M20.828 109.672V111.164H18.8754V113.402H17.5737V111.164H15.6211V109.672H17.5737V107.434H18.8754V109.672H20.828Z" fill="white"/>
<path d="M20.828 127.577V129.069H18.8754V131.308H17.5737V129.069H15.6211V127.577H17.5737V125.339H18.8754V127.577H20.828Z" fill="white"/>
<path d="M5.20691 2.2382V3.73033H3.25432V5.96854H1.95259V3.73033H0V2.2382H1.95259V0H3.25432V2.2382H5.20691Z" fill="white"/>
<path d="M5.20691 20.1438V21.636H3.25432V23.8742H1.95259V21.636H0V20.1438H1.95259V17.9056H3.25432V20.1438H5.20691Z" fill="white"/>
<path d="M5.20691 38.0494V39.5415H3.25432V41.7797H1.95259V39.5415H0V38.0494H1.95259V35.8112H3.25432V38.0494H5.20691Z" fill="white"/>
<path d="M5.20691 55.955V57.4471H3.25432V59.6853H1.95259V57.4471H0V55.955H1.95259V53.7168H3.25432V55.955H5.20691Z" fill="white"/>
<path d="M5.20691 73.8605V75.3527H3.25432V77.5909H1.95259V75.3527H0V73.8605H1.95259V71.6223H3.25432V73.8605H5.20691Z" fill="white"/>
<path d="M5.20691 91.7661V93.2583H3.25432V95.4965H1.95259V93.2583H0V91.7661H1.95259V89.528H3.25432V91.7661H5.20691Z" fill="white"/>
<path d="M5.20691 109.672V111.164H3.25432V113.402H1.95259V111.164H0V109.672H1.95259V107.434H3.25432V109.672H5.20691Z" fill="white"/>
<path d="M5.20691 127.577V129.069H3.25432V131.308H1.95259V129.069H0V127.577H1.95259V125.339H3.25432V127.577H5.20691Z" fill="white"/>
</g>
</svg>
